%TF.GenerationSoftware,KiCad,Pcbnew,8.0.1*%
%TF.CreationDate,2025-11-16T21:13:42-08:00*%
%TF.ProjectId,Ratgo_TW,52617467-6f5f-4545-972e-6b696361645f,rev?*%
%TF.SameCoordinates,Original*%
%TF.FileFunction,Soldermask,Top*%
%TF.FilePolarity,Negative*%
%FSLAX46Y46*%
G04 Gerber Fmt 4.6, Leading zero omitted, Abs format (unit mm)*
G04 Created by KiCad (PCBNEW 8.0.1) date 2025-11-16 21:13:42*
%MOMM*%
%LPD*%
G01*
G04 APERTURE LIST*
G04 Aperture macros list*
%AMRoundRect*
0 Rectangle with rounded corners*
0 $1 Rounding radius*
0 $2 $3 $4 $5 $6 $7 $8 $9 X,Y pos of 4 corners*
0 Add a 4 corners polygon primitive as box body*
4,1,4,$2,$3,$4,$5,$6,$7,$8,$9,$2,$3,0*
0 Add four circle primitives for the rounded corners*
1,1,$1+$1,$2,$3*
1,1,$1+$1,$4,$5*
1,1,$1+$1,$6,$7*
1,1,$1+$1,$8,$9*
0 Add four rect primitives between the rounded corners*
20,1,$1+$1,$2,$3,$4,$5,0*
20,1,$1+$1,$4,$5,$6,$7,0*
20,1,$1+$1,$6,$7,$8,$9,0*
20,1,$1+$1,$8,$9,$2,$3,0*%
G04 Aperture macros list end*
%ADD10C,1.800000*%
%ADD11R,1.800000X1.800000*%
%ADD12C,2.200000*%
%ADD13RoundRect,0.250000X0.450000X-0.262500X0.450000X0.262500X-0.450000X0.262500X-0.450000X-0.262500X0*%
%ADD14R,1.200000X2.100000*%
%ADD15RoundRect,0.250000X0.250000X0.475000X-0.250000X0.475000X-0.250000X-0.475000X0.250000X-0.475000X0*%
%ADD16RoundRect,0.250000X-0.262500X-0.450000X0.262500X-0.450000X0.262500X0.450000X-0.262500X0.450000X0*%
%ADD17RoundRect,0.150000X0.150000X-0.512500X0.150000X0.512500X-0.150000X0.512500X-0.150000X-0.512500X0*%
%ADD18RoundRect,0.250000X0.262500X0.450000X-0.262500X0.450000X-0.262500X-0.450000X0.262500X-0.450000X0*%
%ADD19RoundRect,0.150000X-0.150000X0.587500X-0.150000X-0.587500X0.150000X-0.587500X0.150000X0.587500X0*%
%ADD20RoundRect,0.250000X-0.250000X-0.475000X0.250000X-0.475000X0.250000X0.475000X-0.250000X0.475000X0*%
%ADD21R,2.500000X1.000000*%
%ADD22R,1.000000X1.800000*%
%ADD23RoundRect,0.150000X0.150000X-0.587500X0.150000X0.587500X-0.150000X0.587500X-0.150000X-0.587500X0*%
%ADD24RoundRect,0.102000X-0.200000X-0.675000X0.200000X-0.675000X0.200000X0.675000X-0.200000X0.675000X0*%
%ADD25RoundRect,0.102000X-0.800000X-0.700000X0.800000X-0.700000X0.800000X0.700000X-0.800000X0.700000X0*%
%ADD26RoundRect,0.102000X-0.950000X-0.950000X0.950000X-0.950000X0.950000X0.950000X-0.950000X0.950000X0*%
%ADD27O,1.104000X2.004000*%
%ADD28RoundRect,0.250000X-0.450000X0.262500X-0.450000X-0.262500X0.450000X-0.262500X0.450000X0.262500X0*%
G04 APERTURE END LIST*
D10*
%TO.C,J3*%
X76000000Y-106620000D03*
X76000000Y-104080000D03*
X76000000Y-101540000D03*
X76000000Y-99000000D03*
X76000000Y-96460000D03*
D11*
X76000000Y-93920000D03*
%TD*%
D12*
%TO.C,J2*%
X37500000Y-111840000D03*
X37500000Y-116920000D03*
X37500000Y-122000000D03*
%TD*%
D13*
%TO.C,R3*%
X71000000Y-111325000D03*
X71000000Y-109500000D03*
%TD*%
D14*
%TO.C,SW2*%
X39500000Y-101000000D03*
X39500000Y-107000000D03*
X35500000Y-101000000D03*
X35500000Y-107000000D03*
%TD*%
D15*
%TO.C,C3*%
X51400000Y-125000000D03*
X49500000Y-125000000D03*
%TD*%
D16*
%TO.C,R5*%
X44000000Y-92000000D03*
X45825000Y-92000000D03*
%TD*%
%TO.C,R1*%
X44675000Y-100000000D03*
X46500000Y-100000000D03*
%TD*%
D17*
%TO.C,U3*%
X54350000Y-126500000D03*
X55300000Y-126500000D03*
X56250000Y-126500000D03*
X56250000Y-124225000D03*
X54350000Y-124225000D03*
%TD*%
D18*
%TO.C,R4*%
X43825000Y-95000000D03*
X42000000Y-95000000D03*
%TD*%
D19*
%TO.C,Q2*%
X68500000Y-109750000D03*
X66600000Y-109750000D03*
X67550000Y-111625000D03*
%TD*%
D20*
%TO.C,C4*%
X49600000Y-120000000D03*
X51500000Y-120000000D03*
%TD*%
D14*
%TO.C,SW1*%
X35500000Y-97500000D03*
X35500000Y-91500000D03*
X39500000Y-97500000D03*
X39500000Y-91500000D03*
%TD*%
D21*
%TO.C,U4*%
X48900000Y-88000000D03*
X48900000Y-90000000D03*
X48900000Y-92000000D03*
X48900000Y-94000000D03*
X48900000Y-96000000D03*
X48900000Y-98000000D03*
X48900000Y-100000000D03*
X48900000Y-102000000D03*
D22*
X51500000Y-103500000D03*
X53500000Y-103500000D03*
X55500000Y-103500000D03*
X57500000Y-103500000D03*
X59500000Y-103500000D03*
X61500000Y-103500000D03*
D21*
X64100000Y-102000000D03*
X64100000Y-100000000D03*
X64100000Y-98000000D03*
X64100000Y-96000000D03*
X64100000Y-94000000D03*
X64100000Y-92000000D03*
X64100000Y-90000000D03*
X64100000Y-88000000D03*
%TD*%
D20*
%TO.C,C2*%
X49500000Y-122500000D03*
X51400000Y-122500000D03*
%TD*%
D23*
%TO.C,Q1*%
X62100000Y-111500000D03*
X64000000Y-111500000D03*
X63050000Y-109625000D03*
%TD*%
D24*
%TO.C,J1*%
X54200000Y-130325000D03*
X54850000Y-130325000D03*
X55500000Y-130325000D03*
X56150000Y-130325000D03*
X56800000Y-130325000D03*
D25*
X52300000Y-130550000D03*
X58700000Y-130550000D03*
D26*
X56700000Y-133000000D03*
X54300000Y-133000000D03*
D27*
X52200000Y-133000000D03*
X58800000Y-133000000D03*
%TD*%
D13*
%TO.C,R6*%
X67000000Y-101825000D03*
X67000000Y-100000000D03*
%TD*%
D15*
%TO.C,C1*%
X51400000Y-127500000D03*
X49500000Y-127500000D03*
%TD*%
D28*
%TO.C,R2*%
X43500000Y-109500000D03*
X43500000Y-111325000D03*
%TD*%
D13*
%TO.C,R7*%
X53500000Y-107825000D03*
X53500000Y-106000000D03*
%TD*%
M02*
