M48
; DRILL file {KiCad 8.0.1} date 2025-11-16T21:13:42-0800
; FORMAT={-:-/ absolute / inch / decimal}
; #@! TF.CreationDate,2025-11-16T21:13:42-08:00
; #@! TF.GenerationSoftware,Kicad,Pcbnew,8.0.1
; #@! TF.FileFunction,Plated,1,2,PTH
FMAT,2
INCH
; #@! TA.AperFunction,Plated,PTH,ViaDrill
T1C0.0118
; #@! TA.AperFunction,Plated,PTH,ComponentDrill
T2C0.0197
; #@! TA.AperFunction,Plated,PTH,ComponentDrill
T3C0.0472
; #@! TA.AperFunction,Plated,PTH,ComponentDrill
T4C0.0512
%
G90
G05
T1
X1.3386Y-3.3071
X1.3386Y-3.4252
X1.4961Y-3.189
X1.6142Y-3.189
X1.6535Y-3.6024
X1.688Y-4.2126
X1.6929Y-3.189
X1.7126Y-3.5236
X1.7323Y-4.0945
X1.752Y-3.8386
X1.7717Y-4.1339
X1.7717Y-4.7244
X1.7717Y-4.9213
X1.7717Y-5.1181
X1.811Y-3.5236
X1.811Y-3.7205
X1.811Y-3.7992
X1.811Y-4.252
X1.811Y-4.3307
X1.8898Y-4.4094
X1.9685Y-4.1732
X2.0472Y-3.4646
X2.0472Y-3.5433
X2.0472Y-3.622
X2.0472Y-3.7008
X2.0472Y-3.7795
X2.0472Y-3.8583
X2.126Y-3.4646
X2.126Y-3.5433
X2.126Y-3.622
X2.126Y-3.7008
X2.126Y-3.7795
X2.1654Y-4.5276
X2.185Y-4.1732
X2.2047Y-3.4646
X2.2047Y-3.5433
X2.2047Y-3.622
X2.2047Y-3.7008
X2.2047Y-3.937
X2.2638Y-4.1732
X2.2638Y-4.2913
X2.2835Y-3.4646
X2.2835Y-3.5433
X2.2835Y-3.622
X2.2835Y-3.7008
X2.2835Y-3.8583
X2.2835Y-3.937
X2.3043Y-4.4083
X2.3622Y-3.4646
X2.3622Y-3.5433
X2.3622Y-3.622
X2.3622Y-3.7008
X2.3622Y-3.8583
X2.3622Y-3.937
X2.3622Y-4.1732
X2.3622Y-4.2913
X2.3622Y-4.5669
X2.3622Y-4.7244
X2.3622Y-4.9213
X2.4606Y-4.1732
X2.5591Y-4.5669
X2.5591Y-4.7244
X2.5591Y-4.9213
X2.5591Y-5.1181
X2.5787Y-4.252
X2.5984Y-4.0748
X2.6181Y-4.2126
X2.6575Y-4.1732
X2.7165Y-3.189
X2.7559Y-4.5669
X2.7559Y-4.7244
X2.7953Y-3.8189
X2.7953Y-3.8976
X2.7953Y-3.9764
X2.7953Y-4.0551
X2.7953Y-4.1339
X2.7953Y-4.2126
X2.8346Y-3.189
X2.874Y-3.8976
X2.874Y-3.9764
X2.9134Y-3.5827
X2.9528Y-3.189
X2.9528Y-4.5276
X2.9528Y-4.7244
X2.9921Y-3.5039
X2.9921Y-3.5827
T3
X2.9921Y-3.6976
X2.9921Y-3.7976
X2.9921Y-3.8976
X2.9921Y-3.9976
X2.9921Y-4.0976
X2.9921Y-4.1976
T4
X1.4764Y-4.4031
X1.4764Y-4.6031
X1.4764Y-4.8031
T2
G00X2.0551Y-5.2224
M15
G01X2.0551Y-5.25
M16
G05
G00X2.315Y-5.2224
M15
G01X2.315Y-5.25
M16
G05
M30
