%TF.GenerationSoftware,KiCad,Pcbnew,8.0.1*%
%TF.CreationDate,2025-11-16T21:13:42-08:00*%
%TF.ProjectId,Ratgo_TW,52617467-6f5f-4545-972e-6b696361645f,rev?*%
%TF.SameCoordinates,Original*%
%TF.FileFunction,Copper,L1,Top*%
%TF.FilePolarity,Positive*%
%FSLAX46Y46*%
G04 Gerber Fmt 4.6, Leading zero omitted, Abs format (unit mm)*
G04 Created by KiCad (PCBNEW 8.0.1) date 2025-11-16 21:13:42*
%MOMM*%
%LPD*%
G01*
G04 APERTURE LIST*
G04 Aperture macros list*
%AMRoundRect*
0 Rectangle with rounded corners*
0 $1 Rounding radius*
0 $2 $3 $4 $5 $6 $7 $8 $9 X,Y pos of 4 corners*
0 Add a 4 corners polygon primitive as box body*
4,1,4,$2,$3,$4,$5,$6,$7,$8,$9,$2,$3,0*
0 Add four circle primitives for the rounded corners*
1,1,$1+$1,$2,$3*
1,1,$1+$1,$4,$5*
1,1,$1+$1,$6,$7*
1,1,$1+$1,$8,$9*
0 Add four rect primitives between the rounded corners*
20,1,$1+$1,$2,$3,$4,$5,0*
20,1,$1+$1,$4,$5,$6,$7,0*
20,1,$1+$1,$6,$7,$8,$9,0*
20,1,$1+$1,$8,$9,$2,$3,0*%
G04 Aperture macros list end*
%TA.AperFunction,ComponentPad*%
%ADD10C,1.800000*%
%TD*%
%TA.AperFunction,ComponentPad*%
%ADD11R,1.800000X1.800000*%
%TD*%
%TA.AperFunction,ComponentPad*%
%ADD12C,2.200000*%
%TD*%
%TA.AperFunction,SMDPad,CuDef*%
%ADD13RoundRect,0.250000X0.450000X-0.262500X0.450000X0.262500X-0.450000X0.262500X-0.450000X-0.262500X0*%
%TD*%
%TA.AperFunction,SMDPad,CuDef*%
%ADD14R,1.200000X2.100000*%
%TD*%
%TA.AperFunction,SMDPad,CuDef*%
%ADD15RoundRect,0.250000X0.250000X0.475000X-0.250000X0.475000X-0.250000X-0.475000X0.250000X-0.475000X0*%
%TD*%
%TA.AperFunction,SMDPad,CuDef*%
%ADD16RoundRect,0.250000X-0.262500X-0.450000X0.262500X-0.450000X0.262500X0.450000X-0.262500X0.450000X0*%
%TD*%
%TA.AperFunction,SMDPad,CuDef*%
%ADD17RoundRect,0.150000X0.150000X-0.512500X0.150000X0.512500X-0.150000X0.512500X-0.150000X-0.512500X0*%
%TD*%
%TA.AperFunction,SMDPad,CuDef*%
%ADD18RoundRect,0.250000X0.262500X0.450000X-0.262500X0.450000X-0.262500X-0.450000X0.262500X-0.450000X0*%
%TD*%
%TA.AperFunction,SMDPad,CuDef*%
%ADD19RoundRect,0.150000X-0.150000X0.587500X-0.150000X-0.587500X0.150000X-0.587500X0.150000X0.587500X0*%
%TD*%
%TA.AperFunction,SMDPad,CuDef*%
%ADD20RoundRect,0.250000X-0.250000X-0.475000X0.250000X-0.475000X0.250000X0.475000X-0.250000X0.475000X0*%
%TD*%
%TA.AperFunction,SMDPad,CuDef*%
%ADD21R,2.500000X1.000000*%
%TD*%
%TA.AperFunction,SMDPad,CuDef*%
%ADD22R,1.000000X1.800000*%
%TD*%
%TA.AperFunction,SMDPad,CuDef*%
%ADD23RoundRect,0.150000X0.150000X-0.587500X0.150000X0.587500X-0.150000X0.587500X-0.150000X-0.587500X0*%
%TD*%
%TA.AperFunction,SMDPad,CuDef*%
%ADD24R,0.400000X1.350000*%
%TD*%
%TA.AperFunction,SMDPad,CuDef*%
%ADD25R,1.600000X1.400000*%
%TD*%
%TA.AperFunction,SMDPad,CuDef*%
%ADD26R,1.900000X1.900000*%
%TD*%
%TA.AperFunction,ComponentPad*%
%ADD27O,0.900000X1.800000*%
%TD*%
%TA.AperFunction,SMDPad,CuDef*%
%ADD28RoundRect,0.250000X-0.450000X0.262500X-0.450000X-0.262500X0.450000X-0.262500X0.450000X0.262500X0*%
%TD*%
%TA.AperFunction,ViaPad*%
%ADD29C,0.600000*%
%TD*%
%TA.AperFunction,Conductor*%
%ADD30C,0.200000*%
%TD*%
%TA.AperFunction,Conductor*%
%ADD31C,0.250000*%
%TD*%
%TA.AperFunction,Conductor*%
%ADD32C,0.500000*%
%TD*%
G04 APERTURE END LIST*
D10*
%TO.P,J3,6,6*%
%TO.N,GND*%
X76000000Y-106620000D03*
%TO.P,J3,5,5*%
%TO.N,unconnected-(J3-Pad5)*%
X76000000Y-104080000D03*
%TO.P,J3,4,4*%
%TO.N,Net-(U3-VOUT)*%
X76000000Y-101540000D03*
%TO.P,J3,3,3*%
%TO.N,Net-(U4-GPIO3{slash}RXD)*%
X76000000Y-99000000D03*
%TO.P,J3,2,2*%
%TO.N,Net-(U4-GPIO1{slash}TXD)*%
X76000000Y-96460000D03*
D11*
%TO.P,J3,1,1*%
%TO.N,unconnected-(J3-Pad1)*%
X76000000Y-93920000D03*
%TD*%
D12*
%TO.P,J2,1,1*%
%TO.N,Net-(J2-Pad1)*%
X37500000Y-111840000D03*
%TO.P,J2,2,2*%
%TO.N,Net-(Q1-G)*%
X37500000Y-116920000D03*
%TO.P,J2,3,3*%
%TO.N,GND*%
X37500000Y-122000000D03*
%TD*%
D13*
%TO.P,R3,1*%
%TO.N,GND*%
X71000000Y-111325000D03*
%TO.P,R3,2*%
%TO.N,Net-(Q2-G)*%
X71000000Y-109500000D03*
%TD*%
D14*
%TO.P,SW2,1,1*%
%TO.N,Net-(U4-GPIO0)*%
X39500000Y-101000000D03*
%TO.P,SW2,2,2*%
X39500000Y-107000000D03*
%TO.P,SW2,3,3*%
%TO.N,GND*%
X35500000Y-101000000D03*
%TO.P,SW2,4,4*%
X35500000Y-107000000D03*
%TD*%
D15*
%TO.P,C3,1*%
%TO.N,Net-(U3-VOUT)*%
X51400000Y-125000000D03*
%TO.P,C3,2*%
%TO.N,GND*%
X49500000Y-125000000D03*
%TD*%
D16*
%TO.P,R5,1*%
%TO.N,Net-(U3-VOUT)*%
X44000000Y-92000000D03*
%TO.P,R5,2*%
%TO.N,Net-(U4-EN)*%
X45825000Y-92000000D03*
%TD*%
%TO.P,R1,1*%
%TO.N,GND*%
X44675000Y-100000000D03*
%TO.P,R1,2*%
%TO.N,Net-(U4-GPIO13)*%
X46500000Y-100000000D03*
%TD*%
D17*
%TO.P,U3,1,VIN*%
%TO.N,Net-(J1-VUSB)*%
X54350000Y-126500000D03*
%TO.P,U3,2,GND*%
%TO.N,GND*%
X55300000Y-126500000D03*
%TO.P,U3,3,EN*%
%TO.N,unconnected-(U3-EN-Pad3)*%
X56250000Y-126500000D03*
%TO.P,U3,4,NC*%
%TO.N,unconnected-(U3-NC-Pad4)*%
X56250000Y-124225000D03*
%TO.P,U3,5,VOUT*%
%TO.N,Net-(U3-VOUT)*%
X54350000Y-124225000D03*
%TD*%
D18*
%TO.P,R4,1*%
%TO.N,Net-(U3-VOUT)*%
X43825000Y-95000000D03*
%TO.P,R4,2*%
%TO.N,Net-(U4-~{RST})*%
X42000000Y-95000000D03*
%TD*%
D19*
%TO.P,Q2,1,G*%
%TO.N,Net-(Q2-G)*%
X68500000Y-109750000D03*
%TO.P,Q2,2,S*%
%TO.N,GND*%
X66600000Y-109750000D03*
%TO.P,Q2,3,D*%
%TO.N,Net-(Q1-G)*%
X67550000Y-111625000D03*
%TD*%
D20*
%TO.P,C4,1*%
%TO.N,GND*%
X49600000Y-120000000D03*
%TO.P,C4,2*%
%TO.N,Net-(U3-VOUT)*%
X51500000Y-120000000D03*
%TD*%
D14*
%TO.P,SW1,1,1*%
%TO.N,GND*%
X35500000Y-97500000D03*
%TO.P,SW1,2,2*%
X35500000Y-91500000D03*
%TO.P,SW1,3,3*%
%TO.N,Net-(U4-~{RST})*%
X39500000Y-97500000D03*
%TO.P,SW1,4,4*%
X39500000Y-91500000D03*
%TD*%
D21*
%TO.P,U4,1,~{RST}*%
%TO.N,Net-(U4-~{RST})*%
X48900000Y-88000000D03*
%TO.P,U4,2,ADC*%
%TO.N,unconnected-(U4-ADC-Pad2)*%
X48900000Y-90000000D03*
%TO.P,U4,3,EN*%
%TO.N,Net-(U4-EN)*%
X48900000Y-92000000D03*
%TO.P,U4,4,GPIO16*%
%TO.N,unconnected-(U4-GPIO16-Pad4)*%
X48900000Y-94000000D03*
%TO.P,U4,5,GPIO14*%
%TO.N,unconnected-(U4-GPIO14-Pad5)*%
X48900000Y-96000000D03*
%TO.P,U4,6,GPIO12*%
%TO.N,unconnected-(U4-GPIO12-Pad6)*%
X48900000Y-98000000D03*
%TO.P,U4,7,GPIO13*%
%TO.N,Net-(U4-GPIO13)*%
X48900000Y-100000000D03*
%TO.P,U4,8,VCC*%
%TO.N,Net-(U3-VOUT)*%
X48900000Y-102000000D03*
D22*
%TO.P,U4,9,CS0*%
%TO.N,unconnected-(U4-CS0-Pad9)*%
X51500000Y-103500000D03*
%TO.P,U4,10,MISO*%
%TO.N,unconnected-(U4-MISO-Pad10)*%
X53500000Y-103500000D03*
%TO.P,U4,11,GPIO9*%
%TO.N,unconnected-(U4-GPIO9-Pad11)*%
X55500000Y-103500000D03*
%TO.P,U4,12,GPIO10*%
%TO.N,unconnected-(U4-GPIO10-Pad12)*%
X57500000Y-103500000D03*
%TO.P,U4,13,MOSI*%
%TO.N,unconnected-(U4-MOSI-Pad13)*%
X59500000Y-103500000D03*
%TO.P,U4,14,SCLK*%
%TO.N,unconnected-(U4-SCLK-Pad14)*%
X61500000Y-103500000D03*
D21*
%TO.P,U4,15,GND*%
%TO.N,Earth*%
X64100000Y-102000000D03*
%TO.P,U4,16,GPIO15*%
%TO.N,Net-(U4-GPIO15)*%
X64100000Y-100000000D03*
%TO.P,U4,17,GPIO2*%
%TO.N,unconnected-(U4-GPIO2-Pad17)*%
X64100000Y-98000000D03*
%TO.P,U4,18,GPIO0*%
%TO.N,Net-(U4-GPIO0)*%
X64100000Y-96000000D03*
%TO.P,U4,19,GPIO4*%
%TO.N,Net-(Q1-D)*%
X64100000Y-94000000D03*
%TO.P,U4,20,GPIO5*%
%TO.N,Net-(Q2-G)*%
X64100000Y-92000000D03*
%TO.P,U4,21,GPIO3/RXD*%
%TO.N,Net-(U4-GPIO3{slash}RXD)*%
X64100000Y-90000000D03*
%TO.P,U4,22,GPIO1/TXD*%
%TO.N,Net-(U4-GPIO1{slash}TXD)*%
X64100000Y-88000000D03*
%TD*%
D20*
%TO.P,C2,1*%
%TO.N,GND*%
X49500000Y-122500000D03*
%TO.P,C2,2*%
%TO.N,Net-(U3-VOUT)*%
X51400000Y-122500000D03*
%TD*%
D23*
%TO.P,Q1,1,G*%
%TO.N,Net-(Q1-G)*%
X62100000Y-111500000D03*
%TO.P,Q1,2,S*%
%TO.N,GND*%
X64000000Y-111500000D03*
%TO.P,Q1,3,D*%
%TO.N,Net-(Q1-D)*%
X63050000Y-109625000D03*
%TD*%
D24*
%TO.P,J1,1,VUSB*%
%TO.N,Net-(J1-VUSB)*%
X54200000Y-130325000D03*
%TO.P,J1,2,D-*%
%TO.N,unconnected-(J1-D--Pad2)*%
X54850000Y-130325000D03*
%TO.P,J1,3,D+*%
%TO.N,unconnected-(J1-D+-Pad3)*%
X55500000Y-130325000D03*
%TO.P,J1,4,ID*%
%TO.N,unconnected-(J1-ID-Pad4)*%
X56150000Y-130325000D03*
%TO.P,J1,5,GND*%
%TO.N,GND*%
X56800000Y-130325000D03*
D25*
%TO.P,J1,S1,SHIELD*%
X52300000Y-130550000D03*
%TO.P,J1,S2,SHIELD__1*%
X58700000Y-130550000D03*
D26*
%TO.P,J1,S3,SHIELD__2*%
X56700000Y-133000000D03*
%TO.P,J1,S4,SHIELD__3*%
X54300000Y-133000000D03*
D27*
%TO.P,J1,S5,SHIELD__4*%
X52200000Y-133000000D03*
%TO.P,J1,S6,SHIELD__5*%
X58800000Y-133000000D03*
%TD*%
D13*
%TO.P,R6,1*%
%TO.N,GND*%
X67000000Y-101825000D03*
%TO.P,R6,2*%
%TO.N,Net-(U4-GPIO15)*%
X67000000Y-100000000D03*
%TD*%
D15*
%TO.P,C1,1*%
%TO.N,Net-(J1-VUSB)*%
X51400000Y-127500000D03*
%TO.P,C1,2*%
%TO.N,GND*%
X49500000Y-127500000D03*
%TD*%
D28*
%TO.P,R2,1*%
%TO.N,Net-(U4-GPIO13)*%
X43500000Y-109500000D03*
%TO.P,R2,2*%
%TO.N,Net-(J2-Pad1)*%
X43500000Y-111325000D03*
%TD*%
D13*
%TO.P,R7,1*%
%TO.N,Net-(U3-VOUT)*%
X53500000Y-107825000D03*
%TO.P,R7,2*%
%TO.N,Net-(U4-GPIO0)*%
X53500000Y-106000000D03*
%TD*%
D29*
%TO.N,GND*%
X34000000Y-84000000D03*
X34000000Y-87000000D03*
X38000000Y-81000000D03*
X43000000Y-81000000D03*
X41000000Y-81000000D03*
X46000000Y-110000000D03*
X46000000Y-108000000D03*
X70000000Y-116000000D03*
X65000000Y-116000000D03*
X60000000Y-116000000D03*
X73000000Y-101000000D03*
X73000000Y-99000000D03*
X71000000Y-107000000D03*
X71000000Y-105000000D03*
X71000000Y-103000000D03*
X71000000Y-101000000D03*
X71000000Y-99000000D03*
X71000000Y-97000000D03*
X74000000Y-91000000D03*
X76000000Y-91000000D03*
X76000000Y-89000000D03*
X75000000Y-81000000D03*
X72000000Y-81000000D03*
X69000000Y-81000000D03*
X45000000Y-120000000D03*
X45000000Y-125000000D03*
X45000000Y-130000000D03*
X65000000Y-130000000D03*
X60000000Y-125000000D03*
X65000000Y-125000000D03*
X75000000Y-115000000D03*
X75000000Y-120000000D03*
X70000000Y-120000000D03*
X65000000Y-120000000D03*
X60000000Y-120000000D03*
X55000000Y-115000000D03*
X56000000Y-100000000D03*
X58000000Y-100000000D03*
X60000000Y-100000000D03*
X60000000Y-98000000D03*
X58000000Y-98000000D03*
X52000000Y-98000000D03*
X54000000Y-96000000D03*
X52000000Y-96000000D03*
X52000000Y-94000000D03*
X54000000Y-94000000D03*
X56000000Y-94000000D03*
X58000000Y-94000000D03*
X60000000Y-94000000D03*
X60000000Y-92000000D03*
X58000000Y-92000000D03*
X56000000Y-92000000D03*
X54000000Y-92000000D03*
X52000000Y-92000000D03*
X52000000Y-90000000D03*
X54000000Y-90000000D03*
X56000000Y-90000000D03*
X58000000Y-90000000D03*
X60000000Y-90000000D03*
X60000000Y-88000000D03*
X58000000Y-88000000D03*
X56000000Y-88000000D03*
X54000000Y-88000000D03*
X52000000Y-88000000D03*
%TO.N,Net-(Q1-G)*%
X58529442Y-111970558D03*
X48000000Y-112000000D03*
%TO.N,GND*%
X66000000Y-103500000D03*
X55500000Y-106000000D03*
X44500000Y-97500000D03*
X46000000Y-94500000D03*
X43500000Y-89500000D03*
X46000000Y-89500000D03*
X42000000Y-91500000D03*
X67500000Y-106000000D03*
X62500000Y-106000000D03*
X60000000Y-109000000D03*
X60000000Y-106000000D03*
X66500000Y-107000000D03*
X57500000Y-109000000D03*
X65500000Y-108000000D03*
X46000000Y-96500000D03*
X57500000Y-106000000D03*
%TO.N,Net-(U4-GPIO0)*%
X42875000Y-107000000D03*
X50000000Y-106000000D03*
%TO.N,Net-(U3-VOUT)*%
X45000000Y-105000000D03*
X44000000Y-104000000D03*
%TD*%
D30*
%TO.N,GND*%
X56800000Y-130325000D02*
X58475000Y-130325000D01*
X58475000Y-130325000D02*
X58700000Y-130550000D01*
X56700000Y-133000000D02*
X56700000Y-130425000D01*
X56700000Y-130425000D02*
X56800000Y-130325000D01*
X57000000Y-129100000D02*
X57000000Y-128500000D01*
X56800000Y-129300000D02*
X57000000Y-129100000D01*
X56800000Y-130325000D02*
X56800000Y-129300000D01*
%TO.N,Net-(Q1-G)*%
X37500000Y-116920000D02*
X43080000Y-116920000D01*
X43080000Y-116920000D02*
X48000000Y-112000000D01*
X58529442Y-111970558D02*
X61629442Y-111970558D01*
X61629442Y-111970558D02*
X62100000Y-111500000D01*
D31*
%TO.N,Net-(J1-VUSB)*%
X54350000Y-126500000D02*
X52400000Y-126500000D01*
D32*
X54200000Y-130325000D02*
X54200000Y-126650000D01*
D31*
X52400000Y-126500000D02*
X51400000Y-127500000D01*
%TO.N,Net-(Q1-D)*%
X68500000Y-96500000D02*
X66000000Y-94000000D01*
X66000000Y-94000000D02*
X64100000Y-94000000D01*
X68500000Y-103000000D02*
X68500000Y-96500000D01*
X63050000Y-108450000D02*
X68500000Y-103000000D01*
X63050000Y-109625000D02*
X63050000Y-108450000D01*
%TO.N,Net-(Q2-G)*%
X66000000Y-92000000D02*
X69000000Y-95000000D01*
X69000000Y-107500000D02*
X68500000Y-108000000D01*
X64100000Y-92000000D02*
X66000000Y-92000000D01*
X69000000Y-95000000D02*
X69000000Y-107500000D01*
X71000000Y-109500000D02*
X68750000Y-109500000D01*
X68750000Y-109500000D02*
X68500000Y-109750000D01*
X68500000Y-108000000D02*
X68500000Y-109750000D01*
%TO.N,Net-(J2-Pad1)*%
X37500000Y-111500000D02*
X43325000Y-111500000D01*
%TO.N,Net-(U4-~{RST})*%
X42000000Y-95000000D02*
X39500000Y-97500000D01*
X48900000Y-88000000D02*
X43000000Y-88000000D01*
X39500000Y-91500000D02*
X39500000Y-97500000D01*
X43000000Y-88000000D02*
X39500000Y-91500000D01*
D30*
%TO.N,Net-(U4-EN)*%
X48900000Y-92000000D02*
X45825000Y-92000000D01*
D31*
%TO.N,Net-(U4-GPIO15)*%
X67000000Y-100000000D02*
X64100000Y-100000000D01*
%TO.N,Net-(U4-GPIO0)*%
X57000000Y-96000000D02*
X64100000Y-96000000D01*
X50000000Y-106000000D02*
X50475000Y-105525000D01*
X39500000Y-107000000D02*
X42875000Y-107000000D01*
X50475000Y-102525000D02*
X57000000Y-96000000D01*
X39500000Y-101000000D02*
X39500000Y-107000000D01*
X50000000Y-106000000D02*
X53500000Y-106000000D01*
X50475000Y-105525000D02*
X50475000Y-102525000D01*
%TO.N,Net-(U3-VOUT)*%
X42000000Y-97000000D02*
X42000000Y-102000000D01*
X42000000Y-102000000D02*
X44000000Y-104000000D01*
D32*
X54350000Y-124225000D02*
X54350000Y-119350000D01*
D31*
X59675000Y-114000000D02*
X53500000Y-107825000D01*
X73500000Y-114000000D02*
X59675000Y-114000000D01*
D32*
X54350000Y-124225000D02*
X53575000Y-125000000D01*
D31*
X53500000Y-107825000D02*
X49075000Y-107825000D01*
X44000000Y-92000000D02*
X44000000Y-94825000D01*
D32*
X51400000Y-122500000D02*
X51400000Y-120100000D01*
X48900000Y-108000000D02*
X48900000Y-105000000D01*
D31*
X45000000Y-105000000D02*
X48900000Y-105000000D01*
D32*
X54350000Y-119350000D02*
X48900000Y-113900000D01*
X53575000Y-125000000D02*
X51400000Y-125000000D01*
X48900000Y-113900000D02*
X48900000Y-108000000D01*
D31*
X73500000Y-103580000D02*
X75500000Y-101580000D01*
D32*
X48900000Y-105000000D02*
X48900000Y-102000000D01*
D31*
X49075000Y-107825000D02*
X48900000Y-108000000D01*
X43825000Y-95175000D02*
X42000000Y-97000000D01*
D32*
X51400000Y-122500000D02*
X51400000Y-125000000D01*
D31*
X73500000Y-114000000D02*
X73500000Y-103580000D01*
%TO.N,Net-(U4-GPIO3{slash}RXD)*%
X75500000Y-99040000D02*
X66460000Y-90000000D01*
X75500000Y-99120000D02*
X75500000Y-99040000D01*
X66460000Y-90000000D02*
X64100000Y-90000000D01*
%TO.N,Net-(U4-GPIO1{slash}TXD)*%
X75500000Y-96500000D02*
X67000000Y-88000000D01*
X67000000Y-88000000D02*
X64100000Y-88000000D01*
D30*
%TO.N,Net-(Q1-G)*%
X66637500Y-112537500D02*
X67550000Y-111625000D01*
X63137500Y-112537500D02*
X66637500Y-112537500D01*
X62100000Y-111500000D02*
X63137500Y-112537500D01*
D31*
%TO.N,Net-(U4-GPIO13)*%
X43500000Y-105500000D02*
X43500000Y-109500000D01*
X46500000Y-102500000D02*
X43500000Y-105500000D01*
X46500000Y-100000000D02*
X48900000Y-100000000D01*
X46500000Y-100000000D02*
X46500000Y-102500000D01*
%TD*%
%TA.AperFunction,Conductor*%
%TO.N,GND*%
G36*
X43943039Y-80020185D02*
G01*
X43988794Y-80072989D01*
X44000000Y-80124500D01*
X44000000Y-87000000D01*
X47151373Y-87000000D01*
X47218412Y-87019685D01*
X47264167Y-87072489D01*
X47274111Y-87141647D01*
X47250639Y-87198312D01*
X47206204Y-87257668D01*
X47206203Y-87257669D01*
X47192715Y-87293834D01*
X47150843Y-87349767D01*
X47085379Y-87374184D01*
X47076533Y-87374500D01*
X42938388Y-87374500D01*
X42817555Y-87398535D01*
X42817547Y-87398537D01*
X42703716Y-87445687D01*
X42601265Y-87514142D01*
X40202226Y-89913181D01*
X40140903Y-89946666D01*
X40114545Y-89949500D01*
X38852129Y-89949500D01*
X38852123Y-89949501D01*
X38792516Y-89955908D01*
X38657671Y-90006202D01*
X38657664Y-90006206D01*
X38542455Y-90092452D01*
X38542452Y-90092455D01*
X38456206Y-90207664D01*
X38456202Y-90207671D01*
X38405908Y-90342517D01*
X38399501Y-90402116D01*
X38399500Y-90402135D01*
X38399500Y-92597870D01*
X38399501Y-92597876D01*
X38405908Y-92657483D01*
X38456202Y-92792328D01*
X38456206Y-92792335D01*
X38542452Y-92907544D01*
X38542455Y-92907547D01*
X38657664Y-92993793D01*
X38657671Y-92993797D01*
X38793833Y-93044582D01*
X38849767Y-93086453D01*
X38874184Y-93151917D01*
X38874500Y-93160764D01*
X38874500Y-95839235D01*
X38854815Y-95906274D01*
X38802011Y-95952029D01*
X38793834Y-95955417D01*
X38657669Y-96006203D01*
X38657664Y-96006206D01*
X38542455Y-96092452D01*
X38542452Y-96092455D01*
X38456206Y-96207664D01*
X38456202Y-96207671D01*
X38405908Y-96342517D01*
X38399501Y-96402116D01*
X38399500Y-96402135D01*
X38399500Y-98597870D01*
X38399501Y-98597876D01*
X38405908Y-98657483D01*
X38456202Y-98792328D01*
X38456206Y-98792335D01*
X38542452Y-98907544D01*
X38542455Y-98907547D01*
X38657664Y-98993793D01*
X38657671Y-98993797D01*
X38792517Y-99044091D01*
X38792516Y-99044091D01*
X38799444Y-99044835D01*
X38852127Y-99050500D01*
X40147872Y-99050499D01*
X40207483Y-99044091D01*
X40342331Y-98993796D01*
X40457546Y-98907546D01*
X40543796Y-98792331D01*
X40594091Y-98657483D01*
X40600500Y-98597873D01*
X40600499Y-97335450D01*
X40620184Y-97268412D01*
X40636813Y-97247775D01*
X41192841Y-96691747D01*
X41254162Y-96658264D01*
X41323854Y-96663248D01*
X41379787Y-96705120D01*
X41404204Y-96770584D01*
X41399615Y-96811552D01*
X41399725Y-96811574D01*
X41399469Y-96812856D01*
X41399183Y-96815418D01*
X41398536Y-96817550D01*
X41374500Y-96938389D01*
X41374500Y-102061611D01*
X41398535Y-102182444D01*
X41398540Y-102182461D01*
X41445685Y-102296280D01*
X41445690Y-102296289D01*
X41476599Y-102342546D01*
X41476600Y-102342548D01*
X41514141Y-102398732D01*
X41514144Y-102398736D01*
X41605586Y-102490178D01*
X41605608Y-102490198D01*
X43173787Y-104058377D01*
X43207272Y-104119700D01*
X43209326Y-104132173D01*
X43214630Y-104179249D01*
X43274210Y-104349521D01*
X43370184Y-104502262D01*
X43403984Y-104536062D01*
X43437469Y-104597385D01*
X43432485Y-104667077D01*
X43403984Y-104711424D01*
X43101269Y-105014140D01*
X43014141Y-105101267D01*
X43005692Y-105113913D01*
X42997438Y-105126267D01*
X42985062Y-105144789D01*
X42945687Y-105203714D01*
X42945685Y-105203718D01*
X42898540Y-105317538D01*
X42898537Y-105317546D01*
X42888714Y-105366936D01*
X42878524Y-105418168D01*
X42875272Y-105434517D01*
X42875268Y-105434536D01*
X42874500Y-105438393D01*
X42874500Y-106083677D01*
X42854815Y-106150716D01*
X42802011Y-106196471D01*
X42764384Y-106206897D01*
X42695750Y-106214630D01*
X42525478Y-106274210D01*
X42396117Y-106355494D01*
X42330145Y-106374500D01*
X40724499Y-106374500D01*
X40657460Y-106354815D01*
X40611705Y-106302011D01*
X40600499Y-106250500D01*
X40600499Y-105902129D01*
X40600498Y-105902123D01*
X40600497Y-105902116D01*
X40594091Y-105842517D01*
X40572776Y-105785369D01*
X40543797Y-105707671D01*
X40543793Y-105707664D01*
X40457547Y-105592455D01*
X40457544Y-105592452D01*
X40342335Y-105506206D01*
X40342330Y-105506203D01*
X40206166Y-105455417D01*
X40150233Y-105413545D01*
X40125816Y-105348081D01*
X40125500Y-105339235D01*
X40125500Y-102660764D01*
X40145185Y-102593725D01*
X40197989Y-102547970D01*
X40206167Y-102544582D01*
X40342328Y-102493797D01*
X40342327Y-102493797D01*
X40342331Y-102493796D01*
X40457546Y-102407546D01*
X40543796Y-102292331D01*
X40594091Y-102157483D01*
X40600500Y-102097873D01*
X40600499Y-99902128D01*
X40594091Y-99842517D01*
X40559584Y-99750000D01*
X40543797Y-99707671D01*
X40543793Y-99707664D01*
X40457547Y-99592455D01*
X40457544Y-99592452D01*
X40342335Y-99506206D01*
X40342328Y-99506202D01*
X40207482Y-99455908D01*
X40207483Y-99455908D01*
X40147883Y-99449501D01*
X40147881Y-99449500D01*
X40147873Y-99449500D01*
X40147864Y-99449500D01*
X38852129Y-99449500D01*
X38852123Y-99449501D01*
X38792516Y-99455908D01*
X38657671Y-99506202D01*
X38657664Y-99506206D01*
X38542455Y-99592452D01*
X38542452Y-99592455D01*
X38456206Y-99707664D01*
X38456202Y-99707671D01*
X38405908Y-99842517D01*
X38403690Y-99863153D01*
X38399501Y-99902123D01*
X38399500Y-99902135D01*
X38399500Y-102097870D01*
X38399501Y-102097876D01*
X38405908Y-102157483D01*
X38456202Y-102292328D01*
X38456206Y-102292335D01*
X38542452Y-102407544D01*
X38542455Y-102407547D01*
X38657664Y-102493793D01*
X38657671Y-102493797D01*
X38793833Y-102544582D01*
X38849767Y-102586453D01*
X38874184Y-102651917D01*
X38874500Y-102660764D01*
X38874500Y-105339235D01*
X38854815Y-105406274D01*
X38802011Y-105452029D01*
X38793834Y-105455417D01*
X38657669Y-105506203D01*
X38657664Y-105506206D01*
X38542455Y-105592452D01*
X38542452Y-105592455D01*
X38456206Y-105707664D01*
X38456202Y-105707671D01*
X38405908Y-105842517D01*
X38399501Y-105902116D01*
X38399501Y-105902123D01*
X38399500Y-105902135D01*
X38399500Y-108097870D01*
X38399501Y-108097871D01*
X38405908Y-108157483D01*
X38456202Y-108292328D01*
X38456206Y-108292335D01*
X38542452Y-108407544D01*
X38542455Y-108407547D01*
X38657664Y-108493793D01*
X38657671Y-108493797D01*
X38792517Y-108544091D01*
X38792516Y-108544091D01*
X38799444Y-108544835D01*
X38852127Y-108550500D01*
X40147872Y-108550499D01*
X40207483Y-108544091D01*
X40342331Y-108493796D01*
X40457546Y-108407546D01*
X40543796Y-108292331D01*
X40594091Y-108157483D01*
X40600500Y-108097873D01*
X40600500Y-107749500D01*
X40620185Y-107682461D01*
X40672989Y-107636706D01*
X40724500Y-107625500D01*
X42330145Y-107625500D01*
X42396117Y-107644506D01*
X42490339Y-107703710D01*
X42525478Y-107725789D01*
X42695745Y-107785368D01*
X42764384Y-107793101D01*
X42828796Y-107820166D01*
X42868352Y-107877760D01*
X42874500Y-107916321D01*
X42874500Y-108415483D01*
X42854815Y-108482522D01*
X42802011Y-108528277D01*
X42789510Y-108533186D01*
X42763847Y-108541691D01*
X42730666Y-108552686D01*
X42730663Y-108552687D01*
X42581342Y-108644789D01*
X42457289Y-108768842D01*
X42365187Y-108918163D01*
X42365185Y-108918168D01*
X42359630Y-108934932D01*
X42310001Y-109084703D01*
X42310001Y-109084704D01*
X42310000Y-109084704D01*
X42299500Y-109187483D01*
X42299500Y-109812501D01*
X42299501Y-109812519D01*
X42310000Y-109915296D01*
X42310001Y-109915299D01*
X42365185Y-110081831D01*
X42365187Y-110081836D01*
X42457289Y-110231157D01*
X42550951Y-110324819D01*
X42584436Y-110386142D01*
X42579452Y-110455834D01*
X42550951Y-110500181D01*
X42457289Y-110593842D01*
X42365187Y-110743163D01*
X42365186Y-110743166D01*
X42353940Y-110777106D01*
X42349831Y-110789505D01*
X42310058Y-110846950D01*
X42245541Y-110873772D01*
X42232125Y-110874500D01*
X38837347Y-110874500D01*
X38770308Y-110854815D01*
X38743057Y-110831032D01*
X38707589Y-110789505D01*
X38635224Y-110704776D01*
X38505337Y-110593842D01*
X38443656Y-110541161D01*
X38443653Y-110541160D01*
X38228859Y-110409533D01*
X37996110Y-110313126D01*
X37751151Y-110254317D01*
X37500000Y-110234551D01*
X37248848Y-110254317D01*
X37003889Y-110313126D01*
X36771140Y-110409533D01*
X36556346Y-110541160D01*
X36556343Y-110541161D01*
X36364776Y-110704776D01*
X36201161Y-110896343D01*
X36201160Y-110896346D01*
X36069533Y-111111140D01*
X35973126Y-111343889D01*
X35914317Y-111588848D01*
X35894551Y-111840000D01*
X35914317Y-112091151D01*
X35973126Y-112336110D01*
X36069533Y-112568859D01*
X36201160Y-112783653D01*
X36201161Y-112783656D01*
X36227286Y-112814244D01*
X36364776Y-112975224D01*
X36473569Y-113068142D01*
X36556343Y-113138838D01*
X36556346Y-113138839D01*
X36771140Y-113270466D01*
X36974778Y-113354815D01*
X37003889Y-113366873D01*
X37248852Y-113425683D01*
X37500000Y-113445449D01*
X37751148Y-113425683D01*
X37996111Y-113366873D01*
X38228859Y-113270466D01*
X38443659Y-113138836D01*
X38635224Y-112975224D01*
X38798836Y-112783659D01*
X38930466Y-112568859D01*
X39026873Y-112336111D01*
X39054616Y-112220553D01*
X39089407Y-112159961D01*
X39151433Y-112127797D01*
X39175190Y-112125500D01*
X42475270Y-112125500D01*
X42542309Y-112145185D01*
X42562951Y-112161819D01*
X42581344Y-112180212D01*
X42730666Y-112272314D01*
X42897203Y-112327499D01*
X42999991Y-112338000D01*
X44000008Y-112337999D01*
X44000016Y-112337998D01*
X44000019Y-112337998D01*
X44056302Y-112332248D01*
X44102797Y-112327499D01*
X44269334Y-112272314D01*
X44418656Y-112180212D01*
X44542712Y-112056156D01*
X44634814Y-111906834D01*
X44689999Y-111740297D01*
X44700500Y-111637509D01*
X44700499Y-111012492D01*
X44689999Y-110909703D01*
X44634814Y-110743166D01*
X44542712Y-110593844D01*
X44449049Y-110500181D01*
X44415564Y-110438858D01*
X44420548Y-110369166D01*
X44449049Y-110324819D01*
X44495682Y-110278186D01*
X44542712Y-110231156D01*
X44634814Y-110081834D01*
X44689999Y-109915297D01*
X44700500Y-109812509D01*
X44700499Y-109187492D01*
X44689999Y-109084703D01*
X44634814Y-108918166D01*
X44542712Y-108768844D01*
X44418656Y-108644788D01*
X44283165Y-108561217D01*
X44269336Y-108552687D01*
X44269335Y-108552686D01*
X44269334Y-108552686D01*
X44210493Y-108533188D01*
X44153051Y-108493416D01*
X44126228Y-108428900D01*
X44125500Y-108415483D01*
X44125500Y-105810452D01*
X44145185Y-105743413D01*
X44161819Y-105722771D01*
X44288575Y-105596015D01*
X44349898Y-105562530D01*
X44419590Y-105567514D01*
X44463937Y-105596015D01*
X44497738Y-105629816D01*
X44521117Y-105644506D01*
X44622028Y-105707913D01*
X44650478Y-105725789D01*
X44745647Y-105759090D01*
X44820745Y-105785368D01*
X44820750Y-105785369D01*
X44999996Y-105805565D01*
X45000000Y-105805565D01*
X45000004Y-105805565D01*
X45179249Y-105785369D01*
X45179252Y-105785368D01*
X45179255Y-105785368D01*
X45349522Y-105725789D01*
X45478883Y-105644505D01*
X45544855Y-105625500D01*
X48025500Y-105625500D01*
X48092539Y-105645185D01*
X48138294Y-105697989D01*
X48149500Y-105749500D01*
X48149500Y-111072523D01*
X48129815Y-111139562D01*
X48077011Y-111185317D01*
X48011620Y-111195744D01*
X48004024Y-111194888D01*
X48000000Y-111194435D01*
X47999999Y-111194435D01*
X47999996Y-111194435D01*
X47820750Y-111214630D01*
X47820745Y-111214631D01*
X47650476Y-111274211D01*
X47497737Y-111370184D01*
X47370184Y-111497737D01*
X47274210Y-111650478D01*
X47214630Y-111820750D01*
X47204837Y-111907667D01*
X47177770Y-111972081D01*
X47169298Y-111981464D01*
X42867584Y-116283181D01*
X42806261Y-116316666D01*
X42779903Y-116319500D01*
X39066488Y-116319500D01*
X38999449Y-116299815D01*
X38953694Y-116247011D01*
X38951927Y-116242952D01*
X38930467Y-116191143D01*
X38930466Y-116191141D01*
X38798839Y-115976346D01*
X38798838Y-115976343D01*
X38761875Y-115933066D01*
X38635224Y-115784776D01*
X38508571Y-115676604D01*
X38443656Y-115621161D01*
X38443653Y-115621160D01*
X38228859Y-115489533D01*
X37996110Y-115393126D01*
X37751151Y-115334317D01*
X37500000Y-115314551D01*
X37248848Y-115334317D01*
X37003889Y-115393126D01*
X36771140Y-115489533D01*
X36556346Y-115621160D01*
X36556343Y-115621161D01*
X36364776Y-115784776D01*
X36201161Y-115976343D01*
X36201160Y-115976346D01*
X36069533Y-116191140D01*
X35973126Y-116423889D01*
X35914317Y-116668848D01*
X35894551Y-116920000D01*
X35914317Y-117171151D01*
X35973126Y-117416110D01*
X36069533Y-117648859D01*
X36201160Y-117863653D01*
X36201161Y-117863656D01*
X36201164Y-117863659D01*
X36364776Y-118055224D01*
X36513066Y-118181875D01*
X36556343Y-118218838D01*
X36556346Y-118218839D01*
X36771140Y-118350466D01*
X37003889Y-118446873D01*
X37248852Y-118505683D01*
X37500000Y-118525449D01*
X37751148Y-118505683D01*
X37996111Y-118446873D01*
X38228859Y-118350466D01*
X38443659Y-118218836D01*
X38635224Y-118055224D01*
X38798836Y-117863659D01*
X38930466Y-117648859D01*
X38951927Y-117597048D01*
X38995767Y-117542644D01*
X39062061Y-117520579D01*
X39066488Y-117520500D01*
X42993331Y-117520500D01*
X42993347Y-117520501D01*
X43000943Y-117520501D01*
X43159054Y-117520501D01*
X43159057Y-117520501D01*
X43311785Y-117479577D01*
X43361904Y-117450639D01*
X43448716Y-117400520D01*
X43560520Y-117288716D01*
X43560520Y-117288714D01*
X43570728Y-117278507D01*
X43570729Y-117278504D01*
X47937821Y-112911413D01*
X47999142Y-112877930D01*
X48068834Y-112882914D01*
X48124767Y-112924786D01*
X48149184Y-112990250D01*
X48149500Y-112999096D01*
X48149500Y-113973918D01*
X48149500Y-113973920D01*
X48149499Y-113973920D01*
X48178340Y-114118907D01*
X48178343Y-114118917D01*
X48234913Y-114255490D01*
X48234914Y-114255492D01*
X48262172Y-114296286D01*
X48262173Y-114296288D01*
X48317043Y-114378410D01*
X48317047Y-114378415D01*
X53563181Y-119624549D01*
X53596666Y-119685872D01*
X53599500Y-119712230D01*
X53599500Y-123430170D01*
X53594576Y-123464765D01*
X53552402Y-123609926D01*
X53552401Y-123609932D01*
X53549500Y-123646798D01*
X53549500Y-123912770D01*
X53529815Y-123979809D01*
X53513181Y-124000451D01*
X53300451Y-124213181D01*
X53239128Y-124246666D01*
X53212770Y-124249500D01*
X52431058Y-124249500D01*
X52364019Y-124229815D01*
X52325519Y-124190597D01*
X52242712Y-124056344D01*
X52186819Y-124000451D01*
X52153334Y-123939128D01*
X52150500Y-123912770D01*
X52150500Y-123587230D01*
X52170185Y-123520191D01*
X52186819Y-123499549D01*
X52242712Y-123443656D01*
X52334814Y-123294334D01*
X52389999Y-123127797D01*
X52400500Y-123025009D01*
X52400499Y-121974992D01*
X52389999Y-121872203D01*
X52334814Y-121705666D01*
X52242712Y-121556344D01*
X52186819Y-121500451D01*
X52153334Y-121439128D01*
X52150500Y-121412770D01*
X52150500Y-121178957D01*
X52170185Y-121111918D01*
X52209407Y-121073416D01*
X52218656Y-121067712D01*
X52342712Y-120943656D01*
X52434814Y-120794334D01*
X52489999Y-120627797D01*
X52500500Y-120525009D01*
X52500499Y-119474992D01*
X52489999Y-119372203D01*
X52434814Y-119205666D01*
X52342712Y-119056344D01*
X52218656Y-118932288D01*
X52069334Y-118840186D01*
X51902797Y-118785001D01*
X51902795Y-118785000D01*
X51800010Y-118774500D01*
X51199998Y-118774500D01*
X51199980Y-118774501D01*
X51097203Y-118785000D01*
X51097200Y-118785001D01*
X50930668Y-118840185D01*
X50930663Y-118840187D01*
X50781342Y-118932289D01*
X50657288Y-119056343D01*
X50657283Y-119056349D01*
X50655241Y-119059661D01*
X50653247Y-119061453D01*
X50652807Y-119062011D01*
X50652711Y-119061935D01*
X50603291Y-119106383D01*
X50534328Y-119117602D01*
X50470247Y-119089755D01*
X50444168Y-119059656D01*
X50442319Y-119056659D01*
X50442316Y-119056655D01*
X50318345Y-118932684D01*
X50169124Y-118840643D01*
X50169119Y-118840641D01*
X50002697Y-118785494D01*
X50002690Y-118785493D01*
X49899986Y-118775000D01*
X49850000Y-118775000D01*
X49850000Y-121151000D01*
X49830315Y-121218039D01*
X49777511Y-121263794D01*
X49756672Y-121268327D01*
X49750000Y-121275000D01*
X49750000Y-128724999D01*
X49799972Y-128724999D01*
X49799986Y-128724998D01*
X49902697Y-128714505D01*
X50069119Y-128659358D01*
X50069124Y-128659356D01*
X50218345Y-128567315D01*
X50342318Y-128443342D01*
X50344165Y-128440348D01*
X50345969Y-128438724D01*
X50346798Y-128437677D01*
X50346976Y-128437818D01*
X50396110Y-128393621D01*
X50465073Y-128382396D01*
X50529156Y-128410236D01*
X50555243Y-128440341D01*
X50557288Y-128443656D01*
X50681344Y-128567712D01*
X50830666Y-128659814D01*
X50997203Y-128714999D01*
X51099991Y-128725500D01*
X51700008Y-128725499D01*
X51700016Y-128725498D01*
X51700019Y-128725498D01*
X51756302Y-128719748D01*
X51802797Y-128714999D01*
X51969334Y-128659814D01*
X52118656Y-128567712D01*
X52242712Y-128443656D01*
X52334814Y-128294334D01*
X52389999Y-128127797D01*
X52400500Y-128025009D01*
X52400499Y-127435452D01*
X52420183Y-127368414D01*
X52436818Y-127347772D01*
X52622772Y-127161819D01*
X52684095Y-127128334D01*
X52710453Y-127125500D01*
X53325500Y-127125500D01*
X53392539Y-127145185D01*
X53438294Y-127197989D01*
X53449500Y-127249500D01*
X53449500Y-129268115D01*
X53429815Y-129335154D01*
X53377011Y-129380909D01*
X53307853Y-129390853D01*
X53282167Y-129384297D01*
X53207379Y-129356403D01*
X53207372Y-129356401D01*
X53147844Y-129350000D01*
X52550000Y-129350000D01*
X52550000Y-131669000D01*
X52530315Y-131736039D01*
X52477511Y-131781794D01*
X52456672Y-131786327D01*
X52450000Y-131793000D01*
X52450000Y-132600272D01*
X52411940Y-132508386D01*
X52341614Y-132438060D01*
X52249728Y-132400000D01*
X52150272Y-132400000D01*
X52058386Y-132438060D01*
X51988060Y-132508386D01*
X51950000Y-132600272D01*
X51950000Y-131681000D01*
X51969685Y-131613961D01*
X52022489Y-131568206D01*
X52043327Y-131563672D01*
X52050000Y-131557000D01*
X52050000Y-130800000D01*
X51000000Y-130800000D01*
X51000000Y-131297844D01*
X51006401Y-131357372D01*
X51006403Y-131357379D01*
X51056645Y-131492086D01*
X51056649Y-131492093D01*
X51142809Y-131607187D01*
X51142812Y-131607190D01*
X51257906Y-131693350D01*
X51257913Y-131693354D01*
X51392618Y-131743595D01*
X51395400Y-131744253D01*
X51397338Y-131745356D01*
X51399892Y-131746309D01*
X51399737Y-131746722D01*
X51456120Y-131778819D01*
X51488513Y-131840726D01*
X51482295Y-131910319D01*
X51465313Y-131939240D01*
X51465471Y-131939345D01*
X51463667Y-131942044D01*
X51462761Y-131943588D01*
X51462087Y-131944409D01*
X51358124Y-132099999D01*
X51358119Y-132100008D01*
X51286508Y-132272894D01*
X51286506Y-132272902D01*
X51250000Y-132456428D01*
X51250000Y-132750000D01*
X51950000Y-132750000D01*
X51950000Y-133250000D01*
X51250000Y-133250000D01*
X51250000Y-133543571D01*
X51286506Y-133727097D01*
X51286508Y-133727105D01*
X51328320Y-133828047D01*
X51335789Y-133897516D01*
X51304514Y-133959996D01*
X51244425Y-133995648D01*
X51213759Y-133999500D01*
X37502872Y-133999500D01*
X37497145Y-133999368D01*
X37136696Y-133982703D01*
X37125292Y-133981646D01*
X36770768Y-133932192D01*
X36759509Y-133930087D01*
X36411068Y-133848135D01*
X36400052Y-133845001D01*
X36060644Y-133731243D01*
X36049964Y-133727105D01*
X35722517Y-133582523D01*
X35712264Y-133577418D01*
X35399547Y-133403234D01*
X35389809Y-133397205D01*
X35094487Y-133194906D01*
X35085347Y-133188003D01*
X34809964Y-132959328D01*
X34801500Y-132951612D01*
X34548387Y-132698499D01*
X34540671Y-132690035D01*
X34466133Y-132600272D01*
X34311994Y-132414649D01*
X34305093Y-132405512D01*
X34301317Y-132400000D01*
X34102794Y-132110190D01*
X34096765Y-132100452D01*
X34006970Y-131939240D01*
X33922579Y-131787731D01*
X33917476Y-131777482D01*
X33909254Y-131758860D01*
X33772889Y-131450022D01*
X33768761Y-131439368D01*
X33654994Y-131099934D01*
X33651867Y-131088944D01*
X33569910Y-130740482D01*
X33567807Y-130729231D01*
X33544554Y-130562539D01*
X33518352Y-130374700D01*
X33517296Y-130363303D01*
X33515629Y-130327255D01*
X33500632Y-130002855D01*
X33500500Y-129997128D01*
X33500500Y-128500000D01*
X36244473Y-128500000D01*
X36264563Y-128832136D01*
X36264563Y-128832141D01*
X36264564Y-128832142D01*
X36324544Y-129159441D01*
X36324545Y-129159445D01*
X36324546Y-129159449D01*
X36423530Y-129477104D01*
X36423534Y-129477116D01*
X36423537Y-129477123D01*
X36560102Y-129780557D01*
X36573169Y-129802172D01*
X36732251Y-130065326D01*
X36937460Y-130327255D01*
X37172744Y-130562539D01*
X37434673Y-130767748D01*
X37434678Y-130767751D01*
X37434682Y-130767754D01*
X37719443Y-130939898D01*
X38022877Y-131076463D01*
X38022890Y-131076467D01*
X38022895Y-131076469D01*
X38098240Y-131099947D01*
X38340559Y-131175456D01*
X38667858Y-131235436D01*
X39000000Y-131255527D01*
X39332142Y-131235436D01*
X39659441Y-131175456D01*
X39934099Y-131089869D01*
X39977104Y-131076469D01*
X39977104Y-131076468D01*
X39977123Y-131076463D01*
X40280557Y-130939898D01*
X40565318Y-130767754D01*
X40607246Y-130734906D01*
X40641740Y-130707881D01*
X40827252Y-130562542D01*
X41062542Y-130327252D01*
X41083893Y-130300000D01*
X51000000Y-130300000D01*
X52050000Y-130300000D01*
X52050000Y-129350000D01*
X51452155Y-129350000D01*
X51392627Y-129356401D01*
X51392620Y-129356403D01*
X51257913Y-129406645D01*
X51257906Y-129406649D01*
X51142812Y-129492809D01*
X51142809Y-129492812D01*
X51056649Y-129607906D01*
X51056645Y-129607913D01*
X51006403Y-129742620D01*
X51006401Y-129742627D01*
X51000000Y-129802155D01*
X51000000Y-130300000D01*
X41083893Y-130300000D01*
X41267754Y-130065318D01*
X41439898Y-129780557D01*
X41576463Y-129477123D01*
X41675456Y-129159441D01*
X41735436Y-128832142D01*
X41755527Y-128500000D01*
X41735436Y-128167858D01*
X41675456Y-127840559D01*
X41647237Y-127750000D01*
X48500001Y-127750000D01*
X48500001Y-128024986D01*
X48510494Y-128127697D01*
X48565641Y-128294119D01*
X48565643Y-128294124D01*
X48657684Y-128443345D01*
X48781654Y-128567315D01*
X48930875Y-128659356D01*
X48930880Y-128659358D01*
X49097302Y-128714505D01*
X49097309Y-128714506D01*
X49200019Y-128724999D01*
X49249999Y-128724998D01*
X49250000Y-128724998D01*
X49250000Y-127750000D01*
X48500001Y-127750000D01*
X41647237Y-127750000D01*
X41620127Y-127663000D01*
X41576469Y-127522895D01*
X41576467Y-127522890D01*
X41576463Y-127522877D01*
X41453651Y-127250000D01*
X48500000Y-127250000D01*
X49250000Y-127250000D01*
X49250000Y-125250000D01*
X48500001Y-125250000D01*
X48500001Y-125524986D01*
X48510494Y-125627697D01*
X48565641Y-125794119D01*
X48565643Y-125794124D01*
X48657684Y-125943345D01*
X48781655Y-126067316D01*
X48781659Y-126067319D01*
X48906726Y-126144462D01*
X48953451Y-126196410D01*
X48964672Y-126265372D01*
X48936829Y-126329454D01*
X48906726Y-126355538D01*
X48781659Y-126432680D01*
X48781655Y-126432683D01*
X48657684Y-126556654D01*
X48565643Y-126705875D01*
X48565641Y-126705880D01*
X48510494Y-126872302D01*
X48510493Y-126872309D01*
X48500000Y-126975013D01*
X48500000Y-127250000D01*
X41453651Y-127250000D01*
X41439898Y-127219443D01*
X41267754Y-126934682D01*
X41267751Y-126934678D01*
X41267748Y-126934673D01*
X41062539Y-126672744D01*
X40827255Y-126437460D01*
X40565326Y-126232251D01*
X40565318Y-126232246D01*
X40280557Y-126060102D01*
X39977123Y-125923537D01*
X39977116Y-125923534D01*
X39977104Y-125923530D01*
X39659449Y-125824546D01*
X39659445Y-125824545D01*
X39659441Y-125824544D01*
X39332142Y-125764564D01*
X39332141Y-125764563D01*
X39332136Y-125764563D01*
X39000000Y-125744473D01*
X38667863Y-125764563D01*
X38667858Y-125764564D01*
X38340559Y-125824544D01*
X38340556Y-125824544D01*
X38340550Y-125824546D01*
X38022895Y-125923530D01*
X38022879Y-125923536D01*
X38022877Y-125923537D01*
X37719443Y-126060102D01*
X37707510Y-126067316D01*
X37434673Y-126232251D01*
X37172744Y-126437460D01*
X36937460Y-126672744D01*
X36732251Y-126934673D01*
X36645495Y-127078186D01*
X36560102Y-127219443D01*
X36462884Y-127435453D01*
X36423536Y-127522880D01*
X36423530Y-127522895D01*
X36324546Y-127840550D01*
X36264563Y-128167863D01*
X36244473Y-128500000D01*
X33500500Y-128500000D01*
X33500500Y-124750000D01*
X48500000Y-124750000D01*
X49250000Y-124750000D01*
X49250000Y-122750000D01*
X48500001Y-122750000D01*
X48500001Y-123024986D01*
X48510494Y-123127697D01*
X48565641Y-123294119D01*
X48565643Y-123294124D01*
X48657684Y-123443345D01*
X48781655Y-123567316D01*
X48781659Y-123567319D01*
X48906726Y-123644462D01*
X48953451Y-123696410D01*
X48964672Y-123765372D01*
X48936829Y-123829454D01*
X48906726Y-123855538D01*
X48781659Y-123932680D01*
X48781655Y-123932683D01*
X48657684Y-124056654D01*
X48565643Y-124205875D01*
X48565641Y-124205880D01*
X48510494Y-124372302D01*
X48510493Y-124372309D01*
X48500000Y-124475013D01*
X48500000Y-124750000D01*
X33500500Y-124750000D01*
X33500500Y-122000000D01*
X35895052Y-122000000D01*
X35914812Y-122251072D01*
X35973603Y-122495956D01*
X36069980Y-122728631D01*
X36201568Y-122943362D01*
X36202266Y-122944179D01*
X36898949Y-122247497D01*
X36923967Y-122307896D01*
X36995103Y-122414358D01*
X37085642Y-122504897D01*
X37192104Y-122576033D01*
X37252502Y-122601050D01*
X36555819Y-123297732D01*
X36555819Y-123297733D01*
X36556634Y-123298429D01*
X36771368Y-123430019D01*
X37004043Y-123526396D01*
X37248927Y-123585187D01*
X37500000Y-123604947D01*
X37751072Y-123585187D01*
X37995956Y-123526396D01*
X38228631Y-123430019D01*
X38443361Y-123298432D01*
X38443363Y-123298430D01*
X38444180Y-123297732D01*
X37747497Y-122601050D01*
X37807896Y-122576033D01*
X37914358Y-122504897D01*
X38004897Y-122414358D01*
X38076033Y-122307896D01*
X38101050Y-122247497D01*
X38797732Y-122944180D01*
X38798430Y-122943363D01*
X38798432Y-122943361D01*
X38930019Y-122728631D01*
X39026396Y-122495956D01*
X39085187Y-122251072D01*
X39085271Y-122250000D01*
X48500000Y-122250000D01*
X49250000Y-122250000D01*
X49250000Y-121348998D01*
X49269685Y-121281959D01*
X49322489Y-121236204D01*
X49343328Y-121231670D01*
X49350000Y-121224998D01*
X49350000Y-120250000D01*
X48600001Y-120250000D01*
X48600001Y-120524986D01*
X48610494Y-120627697D01*
X48665641Y-120794119D01*
X48665643Y-120794124D01*
X48757684Y-120943345D01*
X48881654Y-121067315D01*
X48960795Y-121116130D01*
X49007519Y-121168078D01*
X49018742Y-121237041D01*
X48990898Y-121301123D01*
X48937397Y-121337541D01*
X48937421Y-121337592D01*
X48937109Y-121337737D01*
X48934705Y-121339374D01*
X48930882Y-121340640D01*
X48930875Y-121340643D01*
X48781654Y-121432684D01*
X48657684Y-121556654D01*
X48565643Y-121705875D01*
X48565641Y-121705880D01*
X48510494Y-121872302D01*
X48510493Y-121872309D01*
X48500000Y-121975013D01*
X48500000Y-122250000D01*
X39085271Y-122250000D01*
X39104947Y-122000000D01*
X39085187Y-121748927D01*
X39026396Y-121504043D01*
X38930019Y-121271368D01*
X38798429Y-121056634D01*
X38797733Y-121055819D01*
X38797732Y-121055819D01*
X38101050Y-121752501D01*
X38076033Y-121692104D01*
X38004897Y-121585642D01*
X37914358Y-121495103D01*
X37807896Y-121423967D01*
X37747497Y-121398949D01*
X38444179Y-120702266D01*
X38443362Y-120701568D01*
X38228631Y-120569980D01*
X37995956Y-120473603D01*
X37751072Y-120414812D01*
X37500000Y-120395052D01*
X37248927Y-120414812D01*
X37004043Y-120473603D01*
X36771368Y-120569980D01*
X36556637Y-120701567D01*
X36555819Y-120702266D01*
X37252502Y-121398949D01*
X37192104Y-121423967D01*
X37085642Y-121495103D01*
X36995103Y-121585642D01*
X36923967Y-121692104D01*
X36898949Y-121752502D01*
X36202266Y-121055819D01*
X36201567Y-121056637D01*
X36069980Y-121271368D01*
X35973603Y-121504043D01*
X35914812Y-121748927D01*
X35895052Y-122000000D01*
X33500500Y-122000000D01*
X33500500Y-119750000D01*
X48600000Y-119750000D01*
X49350000Y-119750000D01*
X49350000Y-118775000D01*
X49349999Y-118774999D01*
X49300029Y-118775000D01*
X49300011Y-118775001D01*
X49197302Y-118785494D01*
X49030880Y-118840641D01*
X49030875Y-118840643D01*
X48881654Y-118932684D01*
X48757684Y-119056654D01*
X48665643Y-119205875D01*
X48665641Y-119205880D01*
X48610494Y-119372302D01*
X48610493Y-119372309D01*
X48600000Y-119475013D01*
X48600000Y-119750000D01*
X33500500Y-119750000D01*
X33500500Y-107250000D01*
X34400000Y-107250000D01*
X34400000Y-108097844D01*
X34406401Y-108157372D01*
X34406403Y-108157379D01*
X34456645Y-108292086D01*
X34456649Y-108292093D01*
X34542809Y-108407187D01*
X34542812Y-108407190D01*
X34657906Y-108493350D01*
X34657913Y-108493354D01*
X34792620Y-108543596D01*
X34792627Y-108543598D01*
X34852155Y-108549999D01*
X34852172Y-108550000D01*
X35250000Y-108550000D01*
X35250000Y-107250000D01*
X35750000Y-107250000D01*
X35750000Y-108550000D01*
X36147828Y-108550000D01*
X36147844Y-108549999D01*
X36207372Y-108543598D01*
X36207379Y-108543596D01*
X36342086Y-108493354D01*
X36342093Y-108493350D01*
X36457187Y-108407190D01*
X36457190Y-108407187D01*
X36543350Y-108292093D01*
X36543354Y-108292086D01*
X36593596Y-108157379D01*
X36593598Y-108157372D01*
X36599999Y-108097844D01*
X36600000Y-108097827D01*
X36600000Y-107250000D01*
X35750000Y-107250000D01*
X35250000Y-107250000D01*
X34400000Y-107250000D01*
X33500500Y-107250000D01*
X33500500Y-106750000D01*
X34400000Y-106750000D01*
X35250000Y-106750000D01*
X35250000Y-105450000D01*
X35750000Y-105450000D01*
X35750000Y-106750000D01*
X36600000Y-106750000D01*
X36600000Y-105902172D01*
X36599999Y-105902155D01*
X36593598Y-105842627D01*
X36593596Y-105842620D01*
X36543354Y-105707913D01*
X36543350Y-105707906D01*
X36457190Y-105592812D01*
X36457187Y-105592809D01*
X36342093Y-105506649D01*
X36342086Y-105506645D01*
X36207379Y-105456403D01*
X36207372Y-105456401D01*
X36147844Y-105450000D01*
X35750000Y-105450000D01*
X35250000Y-105450000D01*
X34852155Y-105450000D01*
X34792627Y-105456401D01*
X34792620Y-105456403D01*
X34657913Y-105506645D01*
X34657906Y-105506649D01*
X34542812Y-105592809D01*
X34542809Y-105592812D01*
X34456649Y-105707906D01*
X34456645Y-105707913D01*
X34406403Y-105842620D01*
X34406401Y-105842627D01*
X34400000Y-105902155D01*
X34400000Y-106750000D01*
X33500500Y-106750000D01*
X33500500Y-101250000D01*
X34400000Y-101250000D01*
X34400000Y-102097844D01*
X34406401Y-102157372D01*
X34406403Y-102157379D01*
X34456645Y-102292086D01*
X34456649Y-102292093D01*
X34542809Y-102407187D01*
X34542812Y-102407190D01*
X34657906Y-102493350D01*
X34657913Y-102493354D01*
X34792620Y-102543596D01*
X34792627Y-102543598D01*
X34852155Y-102549999D01*
X34852172Y-102550000D01*
X35250000Y-102550000D01*
X35250000Y-101250000D01*
X35750000Y-101250000D01*
X35750000Y-102550000D01*
X36147828Y-102550000D01*
X36147844Y-102549999D01*
X36207372Y-102543598D01*
X36207379Y-102543596D01*
X36342086Y-102493354D01*
X36342093Y-102493350D01*
X36457187Y-102407190D01*
X36457190Y-102407187D01*
X36543350Y-102292093D01*
X36543354Y-102292086D01*
X36593596Y-102157379D01*
X36593598Y-102157372D01*
X36599999Y-102097844D01*
X36600000Y-102097827D01*
X36600000Y-101250000D01*
X35750000Y-101250000D01*
X35250000Y-101250000D01*
X34400000Y-101250000D01*
X33500500Y-101250000D01*
X33500500Y-100750000D01*
X34400000Y-100750000D01*
X35250000Y-100750000D01*
X35250000Y-99450000D01*
X35750000Y-99450000D01*
X35750000Y-100750000D01*
X36600000Y-100750000D01*
X36600000Y-99902172D01*
X36599999Y-99902155D01*
X36593598Y-99842627D01*
X36593596Y-99842620D01*
X36543354Y-99707913D01*
X36543350Y-99707906D01*
X36457190Y-99592812D01*
X36457187Y-99592809D01*
X36342093Y-99506649D01*
X36342086Y-99506645D01*
X36207379Y-99456403D01*
X36207372Y-99456401D01*
X36147844Y-99450000D01*
X35750000Y-99450000D01*
X35250000Y-99450000D01*
X34852155Y-99450000D01*
X34792627Y-99456401D01*
X34792620Y-99456403D01*
X34657913Y-99506645D01*
X34657906Y-99506649D01*
X34542812Y-99592809D01*
X34542809Y-99592812D01*
X34456649Y-99707906D01*
X34456645Y-99707913D01*
X34406403Y-99842620D01*
X34406401Y-99842627D01*
X34400000Y-99902155D01*
X34400000Y-100750000D01*
X33500500Y-100750000D01*
X33500500Y-97750000D01*
X34400000Y-97750000D01*
X34400000Y-98597844D01*
X34406401Y-98657372D01*
X34406403Y-98657379D01*
X34456645Y-98792086D01*
X34456649Y-98792093D01*
X34542809Y-98907187D01*
X34542812Y-98907190D01*
X34657906Y-98993350D01*
X34657913Y-98993354D01*
X34792620Y-99043596D01*
X34792627Y-99043598D01*
X34852155Y-99049999D01*
X34852172Y-99050000D01*
X35250000Y-99050000D01*
X35250000Y-97750000D01*
X35750000Y-97750000D01*
X35750000Y-99050000D01*
X36147828Y-99050000D01*
X36147844Y-99049999D01*
X36207372Y-99043598D01*
X36207379Y-99043596D01*
X36342086Y-98993354D01*
X36342093Y-98993350D01*
X36457187Y-98907190D01*
X36457190Y-98907187D01*
X36543350Y-98792093D01*
X36543354Y-98792086D01*
X36593596Y-98657379D01*
X36593598Y-98657372D01*
X36599999Y-98597844D01*
X36600000Y-98597827D01*
X36600000Y-97750000D01*
X35750000Y-97750000D01*
X35250000Y-97750000D01*
X34400000Y-97750000D01*
X33500500Y-97750000D01*
X33500500Y-97250000D01*
X34400000Y-97250000D01*
X35250000Y-97250000D01*
X35250000Y-95950000D01*
X35750000Y-95950000D01*
X35750000Y-97250000D01*
X36600000Y-97250000D01*
X36600000Y-96402172D01*
X36599999Y-96402155D01*
X36593598Y-96342627D01*
X36593596Y-96342620D01*
X36543354Y-96207913D01*
X36543350Y-96207906D01*
X36457190Y-96092812D01*
X36457187Y-96092809D01*
X36342093Y-96006649D01*
X36342086Y-96006645D01*
X36207379Y-95956403D01*
X36207372Y-95956401D01*
X36147844Y-95950000D01*
X35750000Y-95950000D01*
X35250000Y-95950000D01*
X34852155Y-95950000D01*
X34792627Y-95956401D01*
X34792620Y-95956403D01*
X34657913Y-96006645D01*
X34657906Y-96006649D01*
X34542812Y-96092809D01*
X34542809Y-96092812D01*
X34456649Y-96207906D01*
X34456645Y-96207913D01*
X34406403Y-96342620D01*
X34406401Y-96342627D01*
X34400000Y-96402155D01*
X34400000Y-97250000D01*
X33500500Y-97250000D01*
X33500500Y-91750000D01*
X34400000Y-91750000D01*
X34400000Y-92597844D01*
X34406401Y-92657372D01*
X34406403Y-92657379D01*
X34456645Y-92792086D01*
X34456649Y-92792093D01*
X34542809Y-92907187D01*
X34542812Y-92907190D01*
X34657906Y-92993350D01*
X34657913Y-92993354D01*
X34792620Y-93043596D01*
X34792627Y-93043598D01*
X34852155Y-93049999D01*
X34852172Y-93050000D01*
X35250000Y-93050000D01*
X35250000Y-91750000D01*
X35750000Y-91750000D01*
X35750000Y-93050000D01*
X36147828Y-93050000D01*
X36147844Y-93049999D01*
X36207372Y-93043598D01*
X36207379Y-93043596D01*
X36342086Y-92993354D01*
X36342093Y-92993350D01*
X36457187Y-92907190D01*
X36457190Y-92907187D01*
X36543350Y-92792093D01*
X36543354Y-92792086D01*
X36593596Y-92657379D01*
X36593598Y-92657372D01*
X36599999Y-92597844D01*
X36600000Y-92597827D01*
X36600000Y-91750000D01*
X35750000Y-91750000D01*
X35250000Y-91750000D01*
X34400000Y-91750000D01*
X33500500Y-91750000D01*
X33500500Y-91250000D01*
X34400000Y-91250000D01*
X35250000Y-91250000D01*
X35250000Y-89950000D01*
X35750000Y-89950000D01*
X35750000Y-91250000D01*
X36600000Y-91250000D01*
X36600000Y-90402172D01*
X36599999Y-90402155D01*
X36593598Y-90342627D01*
X36593596Y-90342620D01*
X36543354Y-90207913D01*
X36543350Y-90207906D01*
X36457190Y-90092812D01*
X36457187Y-90092809D01*
X36342093Y-90006649D01*
X36342086Y-90006645D01*
X36207379Y-89956403D01*
X36207372Y-89956401D01*
X36147844Y-89950000D01*
X35750000Y-89950000D01*
X35250000Y-89950000D01*
X34852155Y-89950000D01*
X34792627Y-89956401D01*
X34792620Y-89956403D01*
X34657913Y-90006645D01*
X34657906Y-90006649D01*
X34542812Y-90092809D01*
X34542809Y-90092812D01*
X34456649Y-90207906D01*
X34456645Y-90207913D01*
X34406403Y-90342620D01*
X34406401Y-90342627D01*
X34400000Y-90402155D01*
X34400000Y-91250000D01*
X33500500Y-91250000D01*
X33500500Y-85500000D01*
X36244473Y-85500000D01*
X36264563Y-85832136D01*
X36264563Y-85832141D01*
X36264564Y-85832142D01*
X36324544Y-86159441D01*
X36324545Y-86159445D01*
X36324546Y-86159449D01*
X36423530Y-86477104D01*
X36423534Y-86477116D01*
X36423537Y-86477123D01*
X36560102Y-86780557D01*
X36731796Y-87064574D01*
X36732251Y-87065326D01*
X36937460Y-87327255D01*
X37172744Y-87562539D01*
X37434673Y-87767748D01*
X37434678Y-87767751D01*
X37434682Y-87767754D01*
X37719443Y-87939898D01*
X38022877Y-88076463D01*
X38022890Y-88076467D01*
X38022895Y-88076469D01*
X38234665Y-88142458D01*
X38340559Y-88175456D01*
X38667858Y-88235436D01*
X39000000Y-88255527D01*
X39332142Y-88235436D01*
X39659441Y-88175456D01*
X39977123Y-88076463D01*
X40280557Y-87939898D01*
X40565318Y-87767754D01*
X40827252Y-87562542D01*
X41062542Y-87327252D01*
X41267754Y-87065318D01*
X41439898Y-86780557D01*
X41576463Y-86477123D01*
X41675456Y-86159441D01*
X41735436Y-85832142D01*
X41755527Y-85500000D01*
X41735436Y-85167858D01*
X41675456Y-84840559D01*
X41576463Y-84522877D01*
X41439898Y-84219443D01*
X41267754Y-83934682D01*
X41267751Y-83934678D01*
X41267748Y-83934673D01*
X41062539Y-83672744D01*
X40827255Y-83437460D01*
X40565326Y-83232251D01*
X40565318Y-83232246D01*
X40280557Y-83060102D01*
X39977123Y-82923537D01*
X39977116Y-82923534D01*
X39977104Y-82923530D01*
X39659449Y-82824546D01*
X39659445Y-82824545D01*
X39659441Y-82824544D01*
X39332142Y-82764564D01*
X39332141Y-82764563D01*
X39332136Y-82764563D01*
X39000000Y-82744473D01*
X38667863Y-82764563D01*
X38667858Y-82764564D01*
X38340559Y-82824544D01*
X38340556Y-82824544D01*
X38340550Y-82824546D01*
X38022895Y-82923530D01*
X38022879Y-82923536D01*
X38022877Y-82923537D01*
X37913102Y-82972943D01*
X37719447Y-83060100D01*
X37719445Y-83060101D01*
X37434673Y-83232251D01*
X37172744Y-83437460D01*
X36937460Y-83672744D01*
X36732251Y-83934673D01*
X36560101Y-84219445D01*
X36560100Y-84219447D01*
X36423536Y-84522880D01*
X36423530Y-84522895D01*
X36324546Y-84840550D01*
X36264563Y-85167863D01*
X36244473Y-85500000D01*
X33500500Y-85500000D01*
X33500500Y-84002868D01*
X33500632Y-83997141D01*
X33510007Y-83794364D01*
X33517296Y-83636684D01*
X33518353Y-83625289D01*
X33567808Y-83270755D01*
X33569912Y-83259509D01*
X33651870Y-82911048D01*
X33654993Y-82900069D01*
X33768764Y-82560623D01*
X33772887Y-82549983D01*
X33917487Y-82222493D01*
X33922570Y-82212284D01*
X34096768Y-81899540D01*
X34102790Y-81889813D01*
X34305103Y-81594471D01*
X34311985Y-81585359D01*
X34540681Y-81309952D01*
X34548376Y-81301511D01*
X34801511Y-81048376D01*
X34809952Y-81040681D01*
X35085359Y-80811985D01*
X35094471Y-80805103D01*
X35389813Y-80602790D01*
X35399540Y-80596768D01*
X35712284Y-80422570D01*
X35722493Y-80417487D01*
X36049983Y-80272887D01*
X36060623Y-80268764D01*
X36400069Y-80154993D01*
X36411048Y-80151870D01*
X36759519Y-80069909D01*
X36770755Y-80067808D01*
X37125299Y-80018352D01*
X37136684Y-80017296D01*
X37497142Y-80000632D01*
X37502869Y-80000500D01*
X37565889Y-80000500D01*
X43876000Y-80000500D01*
X43943039Y-80020185D01*
G37*
%TD.AperFunction*%
%TA.AperFunction,Conductor*%
G36*
X74595351Y-103471752D02*
G01*
X74651284Y-103513624D01*
X74675701Y-103579088D01*
X74670608Y-103618349D01*
X74672102Y-103618728D01*
X74613866Y-103848691D01*
X74613864Y-103848702D01*
X74594700Y-104079993D01*
X74594700Y-104080006D01*
X74613864Y-104311297D01*
X74613866Y-104311308D01*
X74670842Y-104536300D01*
X74764075Y-104748848D01*
X74891016Y-104943147D01*
X74891019Y-104943151D01*
X74891021Y-104943153D01*
X75048216Y-105113913D01*
X75223704Y-105250500D01*
X75226225Y-105252462D01*
X75267038Y-105309173D01*
X75270713Y-105378946D01*
X75236082Y-105439629D01*
X75226225Y-105448170D01*
X75201201Y-105467646D01*
X75201200Y-105467647D01*
X75788941Y-106055388D01*
X75768409Y-106060890D01*
X75631592Y-106139882D01*
X75519882Y-106251592D01*
X75440890Y-106388409D01*
X75435388Y-106408942D01*
X74848811Y-105822365D01*
X74764516Y-105951390D01*
X74671317Y-106163864D01*
X74614361Y-106388781D01*
X74595202Y-106619994D01*
X74595202Y-106620005D01*
X74614361Y-106851218D01*
X74671317Y-107076135D01*
X74764515Y-107288606D01*
X74848812Y-107417633D01*
X75435388Y-106831057D01*
X75440890Y-106851591D01*
X75519882Y-106988408D01*
X75631592Y-107100118D01*
X75768409Y-107179110D01*
X75788941Y-107184611D01*
X75201201Y-107772351D01*
X75231649Y-107796050D01*
X75435697Y-107906476D01*
X75435706Y-107906479D01*
X75655139Y-107981811D01*
X75883993Y-108020000D01*
X76116007Y-108020000D01*
X76344860Y-107981811D01*
X76564293Y-107906479D01*
X76564301Y-107906476D01*
X76768355Y-107796047D01*
X76798797Y-107772351D01*
X76798798Y-107772350D01*
X76211059Y-107184611D01*
X76231591Y-107179110D01*
X76368408Y-107100118D01*
X76480118Y-106988408D01*
X76559110Y-106851591D01*
X76564611Y-106831058D01*
X77151186Y-107417633D01*
X77235482Y-107288611D01*
X77261944Y-107228285D01*
X77306900Y-107174799D01*
X77373636Y-107154109D01*
X77440964Y-107172783D01*
X77487507Y-107224894D01*
X77499500Y-107278095D01*
X77499500Y-129997128D01*
X77499368Y-130002855D01*
X77482703Y-130363303D01*
X77481646Y-130374707D01*
X77432192Y-130729231D01*
X77430087Y-130740490D01*
X77348135Y-131088931D01*
X77345001Y-131099947D01*
X77231243Y-131439355D01*
X77227105Y-131450035D01*
X77082523Y-131777482D01*
X77077418Y-131787735D01*
X76903234Y-132100452D01*
X76897205Y-132110190D01*
X76694906Y-132405512D01*
X76688003Y-132414652D01*
X76459328Y-132690035D01*
X76451612Y-132698499D01*
X76198499Y-132951612D01*
X76190035Y-132959328D01*
X75914652Y-133188003D01*
X75905512Y-133194906D01*
X75610190Y-133397205D01*
X75600452Y-133403234D01*
X75287735Y-133577418D01*
X75277482Y-133582523D01*
X74950035Y-133727105D01*
X74939355Y-133731243D01*
X74599947Y-133845001D01*
X74588931Y-133848135D01*
X74240490Y-133930087D01*
X74229231Y-133932192D01*
X73874707Y-133981646D01*
X73863303Y-133982703D01*
X73502855Y-133999368D01*
X73497128Y-133999500D01*
X59786241Y-133999500D01*
X59719202Y-133979815D01*
X59673447Y-133927011D01*
X59663503Y-133857853D01*
X59671680Y-133828047D01*
X59713491Y-133727105D01*
X59713493Y-133727097D01*
X59749999Y-133543571D01*
X59750000Y-133543569D01*
X59750000Y-133250000D01*
X59050000Y-133250000D01*
X59050000Y-132750000D01*
X59750000Y-132750000D01*
X59750000Y-132456430D01*
X59749999Y-132456428D01*
X59713493Y-132272902D01*
X59713491Y-132272894D01*
X59641880Y-132100008D01*
X59641875Y-132099999D01*
X59537913Y-131944409D01*
X59537247Y-131943598D01*
X59537031Y-131943089D01*
X59534529Y-131939345D01*
X59535239Y-131938870D01*
X59509934Y-131879288D01*
X59521725Y-131810421D01*
X59568877Y-131758860D01*
X59604602Y-131744252D01*
X59607385Y-131743594D01*
X59742086Y-131693354D01*
X59742093Y-131693350D01*
X59857187Y-131607190D01*
X59857190Y-131607187D01*
X59943350Y-131492093D01*
X59943354Y-131492086D01*
X59993596Y-131357379D01*
X59993598Y-131357372D01*
X59999999Y-131297844D01*
X60000000Y-131297827D01*
X60000000Y-130800000D01*
X58950000Y-130800000D01*
X58950000Y-131557000D01*
X58959976Y-131566976D01*
X58993039Y-131576685D01*
X59038794Y-131629489D01*
X59050000Y-131681000D01*
X59050000Y-132600272D01*
X59011940Y-132508386D01*
X58941614Y-132438060D01*
X58849728Y-132400000D01*
X58750272Y-132400000D01*
X58658386Y-132438060D01*
X58588060Y-132508386D01*
X58550000Y-132600272D01*
X58550000Y-131793000D01*
X58540023Y-131783023D01*
X58506961Y-131773315D01*
X58461206Y-131720511D01*
X58450000Y-131669000D01*
X58450000Y-129350000D01*
X58950000Y-129350000D01*
X58950000Y-130300000D01*
X60000000Y-130300000D01*
X60000000Y-129802172D01*
X59999999Y-129802155D01*
X59993598Y-129742627D01*
X59993596Y-129742620D01*
X59943354Y-129607913D01*
X59943350Y-129607906D01*
X59857190Y-129492812D01*
X59857187Y-129492809D01*
X59742093Y-129406649D01*
X59742086Y-129406645D01*
X59607379Y-129356403D01*
X59607372Y-129356401D01*
X59547844Y-129350000D01*
X58950000Y-129350000D01*
X58450000Y-129350000D01*
X57852155Y-129350000D01*
X57792627Y-129356401D01*
X57792620Y-129356403D01*
X57657913Y-129406645D01*
X57657907Y-129406648D01*
X57619067Y-129435724D01*
X57553603Y-129460140D01*
X57485330Y-129445288D01*
X57445492Y-129410767D01*
X57357190Y-129292812D01*
X57357187Y-129292809D01*
X57242093Y-129206649D01*
X57242086Y-129206645D01*
X57107379Y-129156403D01*
X57107372Y-129156401D01*
X57047844Y-129150000D01*
X57000000Y-129150000D01*
X57000000Y-129310565D01*
X56980315Y-129377604D01*
X56927511Y-129423359D01*
X56858353Y-129433303D01*
X56794797Y-129404278D01*
X56776734Y-129384876D01*
X56707547Y-129292455D01*
X56649688Y-129249141D01*
X56607818Y-129193207D01*
X56600027Y-129150027D01*
X56600000Y-129150000D01*
X56552166Y-129150000D01*
X56490595Y-129156619D01*
X56464088Y-129156619D01*
X56454818Y-129155622D01*
X56397873Y-129149500D01*
X56397865Y-129149500D01*
X55902129Y-129149500D01*
X55902120Y-129149501D01*
X55838248Y-129156367D01*
X55811742Y-129156367D01*
X55807483Y-129155909D01*
X55747873Y-129149500D01*
X55747864Y-129149500D01*
X55252129Y-129149500D01*
X55252120Y-129149501D01*
X55188248Y-129156367D01*
X55161742Y-129156367D01*
X55157483Y-129155909D01*
X55097873Y-129149500D01*
X55097867Y-129149500D01*
X55074500Y-129149500D01*
X55007461Y-129129815D01*
X54961706Y-129077011D01*
X54950500Y-129025500D01*
X54950500Y-128500000D01*
X69244473Y-128500000D01*
X69264563Y-128832136D01*
X69264563Y-128832141D01*
X69264564Y-128832142D01*
X69324544Y-129159441D01*
X69324545Y-129159445D01*
X69324546Y-129159449D01*
X69423530Y-129477104D01*
X69423534Y-129477116D01*
X69423537Y-129477123D01*
X69560102Y-129780557D01*
X69573169Y-129802172D01*
X69732251Y-130065326D01*
X69937460Y-130327255D01*
X70172744Y-130562539D01*
X70434673Y-130767748D01*
X70434678Y-130767751D01*
X70434682Y-130767754D01*
X70719443Y-130939898D01*
X71022877Y-131076463D01*
X71022890Y-131076467D01*
X71022895Y-131076469D01*
X71098240Y-131099947D01*
X71340559Y-131175456D01*
X71667858Y-131235436D01*
X72000000Y-131255527D01*
X72332142Y-131235436D01*
X72659441Y-131175456D01*
X72934099Y-131089869D01*
X72977104Y-131076469D01*
X72977104Y-131076468D01*
X72977123Y-131076463D01*
X73280557Y-130939898D01*
X73565318Y-130767754D01*
X73607246Y-130734906D01*
X73641740Y-130707881D01*
X73827252Y-130562542D01*
X74062542Y-130327252D01*
X74267754Y-130065318D01*
X74439898Y-129780557D01*
X74576463Y-129477123D01*
X74675456Y-129159441D01*
X74735436Y-128832142D01*
X74755527Y-128500000D01*
X74735436Y-128167858D01*
X74675456Y-127840559D01*
X74620127Y-127663000D01*
X74576469Y-127522895D01*
X74576467Y-127522890D01*
X74576463Y-127522877D01*
X74439898Y-127219443D01*
X74267754Y-126934682D01*
X74267751Y-126934678D01*
X74267748Y-126934673D01*
X74062539Y-126672744D01*
X73827255Y-126437460D01*
X73565326Y-126232251D01*
X73565318Y-126232246D01*
X73280557Y-126060102D01*
X72977123Y-125923537D01*
X72977116Y-125923534D01*
X72977104Y-125923530D01*
X72659449Y-125824546D01*
X72659445Y-125824545D01*
X72659441Y-125824544D01*
X72332142Y-125764564D01*
X72332141Y-125764563D01*
X72332136Y-125764563D01*
X72000000Y-125744473D01*
X71667863Y-125764563D01*
X71667858Y-125764564D01*
X71340559Y-125824544D01*
X71340556Y-125824544D01*
X71340550Y-125824546D01*
X71022895Y-125923530D01*
X71022879Y-125923536D01*
X71022877Y-125923537D01*
X70719443Y-126060102D01*
X70707510Y-126067316D01*
X70434673Y-126232251D01*
X70172744Y-126437460D01*
X69937460Y-126672744D01*
X69732251Y-126934673D01*
X69645495Y-127078186D01*
X69560102Y-127219443D01*
X69462884Y-127435453D01*
X69423536Y-127522880D01*
X69423530Y-127522895D01*
X69324546Y-127840550D01*
X69264563Y-128167863D01*
X69244473Y-128500000D01*
X54950500Y-128500000D01*
X54950500Y-127786106D01*
X54970185Y-127719067D01*
X55022989Y-127673312D01*
X55038306Y-127670604D01*
X55050000Y-127659795D01*
X55050000Y-127394314D01*
X55067267Y-127331194D01*
X55101744Y-127272898D01*
X55143744Y-127128334D01*
X55147597Y-127115073D01*
X55147598Y-127115067D01*
X55150499Y-127078201D01*
X55449500Y-127078201D01*
X55452401Y-127115067D01*
X55452402Y-127115073D01*
X55498254Y-127272893D01*
X55498255Y-127272896D01*
X55498256Y-127272898D01*
X55532732Y-127331194D01*
X55550000Y-127394314D01*
X55550000Y-127659795D01*
X55550001Y-127659795D01*
X55552486Y-127659600D01*
X55710197Y-127613781D01*
X55711382Y-127613081D01*
X55712436Y-127612813D01*
X55717357Y-127610684D01*
X55717700Y-127611477D01*
X55779105Y-127595895D01*
X55832289Y-127611508D01*
X55832446Y-127611147D01*
X55835371Y-127612413D01*
X55837624Y-127613074D01*
X55839602Y-127614244D01*
X55839604Y-127614244D01*
X55839605Y-127614245D01*
X55997426Y-127660097D01*
X55997429Y-127660097D01*
X55997431Y-127660098D01*
X56034306Y-127663000D01*
X56034314Y-127663000D01*
X56465686Y-127663000D01*
X56465694Y-127663000D01*
X56502569Y-127660098D01*
X56502571Y-127660097D01*
X56502573Y-127660097D01*
X56544191Y-127648005D01*
X56660398Y-127614244D01*
X56801865Y-127530581D01*
X56918081Y-127414365D01*
X57001744Y-127272898D01*
X57043744Y-127128334D01*
X57047597Y-127115073D01*
X57047598Y-127115067D01*
X57050499Y-127078201D01*
X57050500Y-127078194D01*
X57050500Y-125921806D01*
X57047598Y-125884931D01*
X57044567Y-125874500D01*
X57001745Y-125727106D01*
X57001744Y-125727103D01*
X57001744Y-125727102D01*
X56918081Y-125585635D01*
X56918079Y-125585633D01*
X56918076Y-125585629D01*
X56801870Y-125469423D01*
X56801867Y-125469421D01*
X56801865Y-125469419D01*
X56801549Y-125469232D01*
X56801353Y-125469022D01*
X56795702Y-125464639D01*
X56796409Y-125463727D01*
X56753866Y-125418164D01*
X56741362Y-125349423D01*
X56768006Y-125284833D01*
X56795921Y-125260644D01*
X56795702Y-125260361D01*
X56800911Y-125256320D01*
X56801550Y-125255767D01*
X56801865Y-125255581D01*
X56918081Y-125139365D01*
X57001744Y-124997898D01*
X57047598Y-124840069D01*
X57050500Y-124803194D01*
X57050500Y-123646806D01*
X57047598Y-123609931D01*
X57001744Y-123452102D01*
X56918081Y-123310635D01*
X56918079Y-123310633D01*
X56918076Y-123310629D01*
X56801870Y-123194423D01*
X56801862Y-123194417D01*
X56660396Y-123110755D01*
X56660393Y-123110754D01*
X56502573Y-123064902D01*
X56502567Y-123064901D01*
X56465701Y-123062000D01*
X56465694Y-123062000D01*
X56034306Y-123062000D01*
X56034298Y-123062000D01*
X55997432Y-123064901D01*
X55997426Y-123064902D01*
X55839606Y-123110754D01*
X55839603Y-123110755D01*
X55698137Y-123194417D01*
X55698129Y-123194423D01*
X55581923Y-123310629D01*
X55581917Y-123310637D01*
X55498255Y-123452103D01*
X55498254Y-123452106D01*
X55452402Y-123609926D01*
X55452401Y-123609932D01*
X55449500Y-123646798D01*
X55449500Y-124803201D01*
X55452401Y-124840067D01*
X55452402Y-124840073D01*
X55498254Y-124997893D01*
X55498255Y-124997896D01*
X55581917Y-125139362D01*
X55586702Y-125145531D01*
X55585018Y-125146836D01*
X55613246Y-125198531D01*
X55608262Y-125268223D01*
X55576234Y-125315961D01*
X55550000Y-125340202D01*
X55550000Y-125605684D01*
X55532733Y-125668804D01*
X55498254Y-125727105D01*
X55498254Y-125727106D01*
X55452402Y-125884926D01*
X55452401Y-125884932D01*
X55449500Y-125921798D01*
X55449500Y-127078201D01*
X55150499Y-127078201D01*
X55150500Y-127078194D01*
X55150500Y-125921806D01*
X55147598Y-125884931D01*
X55144567Y-125874500D01*
X55101745Y-125727106D01*
X55101745Y-125727105D01*
X55101744Y-125727103D01*
X55101744Y-125727102D01*
X55067267Y-125668804D01*
X55050000Y-125605684D01*
X55050000Y-125340202D01*
X55023765Y-125315961D01*
X54987887Y-125256007D01*
X54990118Y-125186173D01*
X55014533Y-125146488D01*
X55013298Y-125145531D01*
X55018075Y-125139370D01*
X55018081Y-125139365D01*
X55101744Y-124997898D01*
X55147598Y-124840069D01*
X55150500Y-124803194D01*
X55150500Y-123646806D01*
X55147598Y-123609931D01*
X55141003Y-123587230D01*
X55105424Y-123464765D01*
X55100500Y-123430170D01*
X55100500Y-119276079D01*
X55071659Y-119131092D01*
X55071658Y-119131091D01*
X55071658Y-119131087D01*
X55043046Y-119062011D01*
X55015087Y-118994511D01*
X55015085Y-118994507D01*
X55015084Y-118994505D01*
X54973512Y-118932288D01*
X54932952Y-118871584D01*
X49686819Y-113625451D01*
X49653334Y-113564128D01*
X49650500Y-113537770D01*
X49650500Y-108574500D01*
X49670185Y-108507461D01*
X49722989Y-108461706D01*
X49774500Y-108450500D01*
X52322912Y-108450500D01*
X52389951Y-108470185D01*
X52428449Y-108509401D01*
X52457288Y-108556156D01*
X52581344Y-108680212D01*
X52730666Y-108772314D01*
X52897203Y-108827499D01*
X52999991Y-108838000D01*
X53577047Y-108837999D01*
X53644086Y-108857683D01*
X53664728Y-108874318D01*
X59186016Y-114395606D01*
X59186045Y-114395637D01*
X59276264Y-114485856D01*
X59276267Y-114485858D01*
X59353190Y-114537256D01*
X59378710Y-114554309D01*
X59378712Y-114554310D01*
X59378715Y-114554312D01*
X59445396Y-114581931D01*
X59445398Y-114581933D01*
X59475129Y-114594247D01*
X59492548Y-114601463D01*
X59613394Y-114625500D01*
X59613396Y-114625500D01*
X73561607Y-114625500D01*
X73561608Y-114625499D01*
X73682452Y-114601463D01*
X73796286Y-114554311D01*
X73898733Y-114485858D01*
X73985858Y-114398733D01*
X74054311Y-114296286D01*
X74101463Y-114182452D01*
X74125500Y-114061606D01*
X74125500Y-103890451D01*
X74145185Y-103823412D01*
X74161814Y-103802774D01*
X74464337Y-103500252D01*
X74525659Y-103466768D01*
X74595351Y-103471752D01*
G37*
%TD.AperFunction*%
%TA.AperFunction,Conductor*%
G36*
X56963682Y-131251754D02*
G01*
X56997166Y-131313078D01*
X57000000Y-131339435D01*
X57000000Y-131448638D01*
X56980315Y-131515677D01*
X56963681Y-131536319D01*
X56950000Y-131550000D01*
X56950000Y-132750000D01*
X58550000Y-132750000D01*
X58550000Y-133250000D01*
X52450000Y-133250000D01*
X52450000Y-132750000D01*
X56450000Y-132750000D01*
X56450000Y-131624000D01*
X56469685Y-131556961D01*
X56522489Y-131511206D01*
X56574000Y-131500000D01*
X56600000Y-131500000D01*
X56600051Y-131499948D01*
X56619685Y-131433084D01*
X56649686Y-131400859D01*
X56707546Y-131357546D01*
X56776733Y-131265123D01*
X56832667Y-131223253D01*
X56902359Y-131218269D01*
X56963682Y-131251754D01*
G37*
%TD.AperFunction*%
%TA.AperFunction,Conductor*%
G36*
X66216587Y-90645185D02*
G01*
X66237229Y-90661819D01*
X74564300Y-98988891D01*
X74597785Y-99050214D01*
X74600195Y-99066332D01*
X74613864Y-99231296D01*
X74613866Y-99231308D01*
X74670842Y-99456300D01*
X74764075Y-99668848D01*
X74891016Y-99863147D01*
X74891019Y-99863151D01*
X74891021Y-99863153D01*
X75048216Y-100033913D01*
X75048219Y-100033915D01*
X75048222Y-100033918D01*
X75225818Y-100172147D01*
X75266631Y-100228857D01*
X75270306Y-100298630D01*
X75235674Y-100359313D01*
X75225818Y-100367853D01*
X75048222Y-100506081D01*
X75048219Y-100506084D01*
X75048216Y-100506086D01*
X75048216Y-100506087D01*
X75009747Y-100547876D01*
X74891016Y-100676852D01*
X74764075Y-100871151D01*
X74670842Y-101083699D01*
X74613866Y-101308691D01*
X74613864Y-101308702D01*
X74594700Y-101539993D01*
X74594700Y-101545128D01*
X74593300Y-101545128D01*
X74580505Y-101607243D01*
X74558703Y-101636705D01*
X73796677Y-102398732D01*
X73101270Y-103094139D01*
X73101267Y-103094142D01*
X73070910Y-103124499D01*
X73014142Y-103181266D01*
X72990368Y-103216847D01*
X72945687Y-103283715D01*
X72940479Y-103296288D01*
X72940480Y-103296289D01*
X72902783Y-103387300D01*
X72898538Y-103397547D01*
X72898536Y-103397552D01*
X72877521Y-103503209D01*
X72877520Y-103503214D01*
X72874500Y-103518394D01*
X72874500Y-113250500D01*
X72854815Y-113317539D01*
X72802011Y-113363294D01*
X72750500Y-113374500D01*
X66775803Y-113374500D01*
X66708764Y-113354815D01*
X66663009Y-113302011D01*
X66653065Y-113232853D01*
X66682090Y-113169297D01*
X66740868Y-113131523D01*
X66743668Y-113130736D01*
X66869285Y-113097077D01*
X66919404Y-113068139D01*
X67006216Y-113018020D01*
X67118020Y-112906216D01*
X67118020Y-112906214D01*
X67128228Y-112896007D01*
X67128230Y-112896004D01*
X67142291Y-112881942D01*
X67203612Y-112848459D01*
X67264562Y-112850548D01*
X67297431Y-112860098D01*
X67334306Y-112863000D01*
X67334314Y-112863000D01*
X67765686Y-112863000D01*
X67765694Y-112863000D01*
X67802569Y-112860098D01*
X67802571Y-112860097D01*
X67802573Y-112860097D01*
X67844191Y-112848005D01*
X67960398Y-112814244D01*
X68101865Y-112730581D01*
X68218081Y-112614365D01*
X68301744Y-112472898D01*
X68340936Y-112337999D01*
X68347597Y-112315073D01*
X68347598Y-112315067D01*
X68350499Y-112278201D01*
X68350500Y-112278194D01*
X68350500Y-111575000D01*
X69800001Y-111575000D01*
X69800001Y-111637486D01*
X69810494Y-111740197D01*
X69865641Y-111906619D01*
X69865643Y-111906624D01*
X69957684Y-112055845D01*
X70081654Y-112179815D01*
X70230875Y-112271856D01*
X70230880Y-112271858D01*
X70397302Y-112327005D01*
X70397309Y-112327006D01*
X70500019Y-112337499D01*
X70749999Y-112337499D01*
X70750000Y-112337498D01*
X70750000Y-111575000D01*
X71250000Y-111575000D01*
X71250000Y-112337499D01*
X71499972Y-112337499D01*
X71499986Y-112337498D01*
X71602697Y-112327005D01*
X71769119Y-112271858D01*
X71769124Y-112271856D01*
X71918345Y-112179815D01*
X72042315Y-112055845D01*
X72134356Y-111906624D01*
X72134358Y-111906619D01*
X72189505Y-111740197D01*
X72189506Y-111740190D01*
X72199999Y-111637486D01*
X72200000Y-111637473D01*
X72200000Y-111575000D01*
X71250000Y-111575000D01*
X70750000Y-111575000D01*
X69800001Y-111575000D01*
X68350500Y-111575000D01*
X68350500Y-111112000D01*
X68370185Y-111044961D01*
X68422989Y-110999206D01*
X68474500Y-110988000D01*
X68715686Y-110988000D01*
X68715694Y-110988000D01*
X68752569Y-110985098D01*
X68752571Y-110985097D01*
X68752573Y-110985097D01*
X68798347Y-110971798D01*
X68910398Y-110939244D01*
X69051865Y-110855581D01*
X69168081Y-110739365D01*
X69251744Y-110597898D01*
X69297598Y-110440069D01*
X69300500Y-110403194D01*
X69300500Y-110249500D01*
X69320185Y-110182461D01*
X69372989Y-110136706D01*
X69424500Y-110125500D01*
X69822912Y-110125500D01*
X69889951Y-110145185D01*
X69928451Y-110184403D01*
X69957289Y-110231157D01*
X70051304Y-110325172D01*
X70084789Y-110386495D01*
X70079805Y-110456187D01*
X70051305Y-110500534D01*
X69957682Y-110594157D01*
X69865643Y-110743375D01*
X69865641Y-110743380D01*
X69810494Y-110909802D01*
X69810493Y-110909809D01*
X69800000Y-111012513D01*
X69800000Y-111075000D01*
X72199999Y-111075000D01*
X72199999Y-111012528D01*
X72199998Y-111012513D01*
X72189505Y-110909802D01*
X72134358Y-110743380D01*
X72134356Y-110743375D01*
X72042315Y-110594154D01*
X71948695Y-110500534D01*
X71915210Y-110439211D01*
X71920194Y-110369519D01*
X71948691Y-110325176D01*
X72042712Y-110231156D01*
X72134814Y-110081834D01*
X72189999Y-109915297D01*
X72200500Y-109812509D01*
X72200499Y-109187492D01*
X72189999Y-109084703D01*
X72134814Y-108918166D01*
X72042712Y-108768844D01*
X71918656Y-108644788D01*
X71783165Y-108561217D01*
X71769336Y-108552687D01*
X71769331Y-108552685D01*
X71736153Y-108541691D01*
X71602797Y-108497501D01*
X71602795Y-108497500D01*
X71500010Y-108487000D01*
X70499998Y-108487000D01*
X70499980Y-108487001D01*
X70397203Y-108497500D01*
X70397200Y-108497501D01*
X70230668Y-108552685D01*
X70230663Y-108552687D01*
X70081342Y-108644789D01*
X69957289Y-108768842D01*
X69957288Y-108768844D01*
X69929670Y-108813621D01*
X69928451Y-108815597D01*
X69876503Y-108862321D01*
X69822912Y-108874500D01*
X69306149Y-108874500D01*
X69239110Y-108854815D01*
X69199417Y-108813621D01*
X69168083Y-108760638D01*
X69168076Y-108760629D01*
X69161819Y-108754372D01*
X69128334Y-108693049D01*
X69125500Y-108666691D01*
X69125500Y-108310451D01*
X69145185Y-108243412D01*
X69161815Y-108222774D01*
X69398729Y-107985860D01*
X69398733Y-107985858D01*
X69485858Y-107898733D01*
X69516584Y-107852746D01*
X69537254Y-107821813D01*
X69537256Y-107821810D01*
X69554310Y-107796288D01*
X69554310Y-107796287D01*
X69554312Y-107796285D01*
X69601463Y-107682451D01*
X69625500Y-107561607D01*
X69625500Y-107438393D01*
X69625500Y-95067741D01*
X69625501Y-95067720D01*
X69625501Y-94938391D01*
X69601464Y-94817555D01*
X69601463Y-94817549D01*
X69554312Y-94703715D01*
X69485858Y-94601267D01*
X69485855Y-94601263D01*
X66492928Y-91608338D01*
X66492925Y-91608334D01*
X66492925Y-91608335D01*
X66485858Y-91601268D01*
X66485858Y-91601267D01*
X66398733Y-91514142D01*
X66398732Y-91514141D01*
X66398731Y-91514140D01*
X66347509Y-91479915D01*
X66305925Y-91452129D01*
X66296286Y-91445688D01*
X66296283Y-91445686D01*
X66296280Y-91445685D01*
X66215792Y-91412347D01*
X66182453Y-91398537D01*
X66172427Y-91396543D01*
X66122029Y-91386518D01*
X66061610Y-91374500D01*
X66061607Y-91374500D01*
X66061606Y-91374500D01*
X65923467Y-91374500D01*
X65856428Y-91354815D01*
X65810673Y-91302011D01*
X65807285Y-91293834D01*
X65793796Y-91257669D01*
X65793793Y-91257664D01*
X65707547Y-91142456D01*
X65707548Y-91142456D01*
X65707546Y-91142454D01*
X65649854Y-91099265D01*
X65607984Y-91043333D01*
X65603000Y-90973641D01*
X65636485Y-90912318D01*
X65649854Y-90900734D01*
X65707546Y-90857546D01*
X65793796Y-90742331D01*
X65807285Y-90706166D01*
X65849157Y-90650233D01*
X65914621Y-90625816D01*
X65923467Y-90625500D01*
X66149548Y-90625500D01*
X66216587Y-90645185D01*
G37*
%TD.AperFunction*%
%TA.AperFunction,Conductor*%
G36*
X68293834Y-104193269D02*
G01*
X68349767Y-104235141D01*
X68374184Y-104300605D01*
X68374500Y-104309451D01*
X68374500Y-107189547D01*
X68354815Y-107256586D01*
X68338181Y-107277228D01*
X68205709Y-107409700D01*
X68101270Y-107514139D01*
X68101267Y-107514142D01*
X68057704Y-107557704D01*
X68014142Y-107601266D01*
X68000304Y-107621976D01*
X67986559Y-107642548D01*
X67945690Y-107703710D01*
X67945685Y-107703719D01*
X67913640Y-107781085D01*
X67898538Y-107817543D01*
X67898538Y-107817545D01*
X67898537Y-107817548D01*
X67876949Y-107926082D01*
X67874500Y-107938396D01*
X67874500Y-108666691D01*
X67854815Y-108733730D01*
X67838181Y-108754372D01*
X67831923Y-108760629D01*
X67831917Y-108760637D01*
X67748255Y-108902103D01*
X67748254Y-108902106D01*
X67702402Y-109059926D01*
X67702401Y-109059932D01*
X67699500Y-109096798D01*
X67699500Y-110263000D01*
X67679815Y-110330039D01*
X67627011Y-110375794D01*
X67575500Y-110387000D01*
X67524000Y-110387000D01*
X67456961Y-110367315D01*
X67411206Y-110314511D01*
X67400000Y-110263000D01*
X67400000Y-110000000D01*
X66850000Y-110000000D01*
X66850000Y-110655684D01*
X66832733Y-110718804D01*
X66798254Y-110777105D01*
X66798254Y-110777106D01*
X66752402Y-110934926D01*
X66752401Y-110934932D01*
X66749500Y-110971798D01*
X66749500Y-111524903D01*
X66729815Y-111591942D01*
X66713181Y-111612584D01*
X66425084Y-111900681D01*
X66363761Y-111934166D01*
X66337403Y-111937000D01*
X64924000Y-111937000D01*
X64856961Y-111917315D01*
X64811206Y-111864511D01*
X64800000Y-111813000D01*
X64800000Y-111750000D01*
X63250598Y-111750000D01*
X63183559Y-111730315D01*
X63162917Y-111713681D01*
X62936819Y-111487583D01*
X62903334Y-111426260D01*
X62900500Y-111399902D01*
X62900500Y-110987000D01*
X62920185Y-110919961D01*
X62972989Y-110874206D01*
X63024500Y-110863000D01*
X63076000Y-110863000D01*
X63143039Y-110882685D01*
X63188794Y-110935489D01*
X63200000Y-110987000D01*
X63200000Y-111250000D01*
X63750000Y-111250000D01*
X63750000Y-110594314D01*
X63767267Y-110531194D01*
X63801744Y-110472898D01*
X63847598Y-110315069D01*
X63850500Y-110278194D01*
X63850500Y-110265203D01*
X64250000Y-110265203D01*
X64250000Y-111250000D01*
X64800000Y-111250000D01*
X64800000Y-110846865D01*
X64799999Y-110846850D01*
X64797100Y-110810010D01*
X64797099Y-110810004D01*
X64751283Y-110652306D01*
X64751282Y-110652303D01*
X64667685Y-110510947D01*
X64667678Y-110510938D01*
X64551561Y-110394821D01*
X64551552Y-110394814D01*
X64410196Y-110311217D01*
X64410193Y-110311216D01*
X64252494Y-110265400D01*
X64252497Y-110265400D01*
X64250000Y-110265203D01*
X63850500Y-110265203D01*
X63850500Y-110000000D01*
X65800000Y-110000000D01*
X65800000Y-110403149D01*
X65802899Y-110439989D01*
X65802900Y-110439995D01*
X65848716Y-110597693D01*
X65848717Y-110597696D01*
X65932314Y-110739052D01*
X65932321Y-110739061D01*
X66048438Y-110855178D01*
X66048447Y-110855185D01*
X66189801Y-110938781D01*
X66347514Y-110984600D01*
X66347511Y-110984600D01*
X66349998Y-110984795D01*
X66350000Y-110984795D01*
X66350000Y-110000000D01*
X65800000Y-110000000D01*
X63850500Y-110000000D01*
X63850500Y-109500000D01*
X65800000Y-109500000D01*
X66350000Y-109500000D01*
X66350000Y-108515203D01*
X66850000Y-108515203D01*
X66850000Y-109500000D01*
X67400000Y-109500000D01*
X67400000Y-109096865D01*
X67399999Y-109096850D01*
X67397100Y-109060010D01*
X67397099Y-109060004D01*
X67351283Y-108902306D01*
X67351282Y-108902303D01*
X67267685Y-108760947D01*
X67267678Y-108760938D01*
X67151561Y-108644821D01*
X67151552Y-108644814D01*
X67010196Y-108561217D01*
X67010193Y-108561216D01*
X66852494Y-108515400D01*
X66852497Y-108515400D01*
X66850000Y-108515203D01*
X66350000Y-108515203D01*
X66347503Y-108515400D01*
X66189806Y-108561216D01*
X66189803Y-108561217D01*
X66048447Y-108644814D01*
X66048438Y-108644821D01*
X65932321Y-108760938D01*
X65932314Y-108760947D01*
X65848717Y-108902303D01*
X65848716Y-108902306D01*
X65802900Y-109060004D01*
X65802899Y-109060010D01*
X65800000Y-109096850D01*
X65800000Y-109500000D01*
X63850500Y-109500000D01*
X63850500Y-108971806D01*
X63847598Y-108934931D01*
X63842727Y-108918166D01*
X63801745Y-108777106D01*
X63801744Y-108777103D01*
X63801744Y-108777102D01*
X63778514Y-108737823D01*
X63761332Y-108670100D01*
X63783492Y-108603837D01*
X63797560Y-108587028D01*
X68162821Y-104221768D01*
X68224142Y-104188285D01*
X68293834Y-104193269D01*
G37*
%TD.AperFunction*%
%TA.AperFunction,Conductor*%
G36*
X67193039Y-101594685D02*
G01*
X67238794Y-101647489D01*
X67250000Y-101699000D01*
X67250000Y-102837499D01*
X67478549Y-102837499D01*
X67545588Y-102857184D01*
X67591343Y-102909988D01*
X67601287Y-102979146D01*
X67572262Y-103042702D01*
X67566230Y-103049179D01*
X62651270Y-107964139D01*
X62651267Y-107964142D01*
X62622486Y-107992923D01*
X62564142Y-108051266D01*
X62548519Y-108074647D01*
X62533001Y-108097873D01*
X62520952Y-108115905D01*
X62495687Y-108153715D01*
X62495685Y-108153718D01*
X62448540Y-108267538D01*
X62448535Y-108267554D01*
X62426307Y-108379303D01*
X62426308Y-108379304D01*
X62424500Y-108388394D01*
X62424500Y-108541691D01*
X62404815Y-108608730D01*
X62388181Y-108629372D01*
X62381923Y-108635629D01*
X62381917Y-108635637D01*
X62298255Y-108777103D01*
X62298254Y-108777106D01*
X62252402Y-108934926D01*
X62252401Y-108934932D01*
X62249500Y-108971798D01*
X62249500Y-110138000D01*
X62229815Y-110205039D01*
X62177011Y-110250794D01*
X62125500Y-110262000D01*
X61884298Y-110262000D01*
X61847432Y-110264901D01*
X61847426Y-110264902D01*
X61689606Y-110310754D01*
X61689603Y-110310755D01*
X61548137Y-110394417D01*
X61548129Y-110394423D01*
X61431923Y-110510629D01*
X61431917Y-110510637D01*
X61348255Y-110652103D01*
X61348254Y-110652106D01*
X61302402Y-110809926D01*
X61302401Y-110809932D01*
X61299500Y-110846798D01*
X61299500Y-111246058D01*
X61279815Y-111313097D01*
X61227011Y-111358852D01*
X61175500Y-111370058D01*
X59111854Y-111370058D01*
X59044815Y-111350373D01*
X59034539Y-111343003D01*
X59031705Y-111340743D01*
X59031704Y-111340742D01*
X58925821Y-111274211D01*
X58878965Y-111244769D01*
X58708696Y-111185189D01*
X58708691Y-111185188D01*
X58529446Y-111164993D01*
X58529438Y-111164993D01*
X58350192Y-111185188D01*
X58350187Y-111185189D01*
X58179918Y-111244769D01*
X58033009Y-111337079D01*
X57965772Y-111356079D01*
X57898937Y-111335711D01*
X57879356Y-111319766D01*
X54736818Y-108177228D01*
X54703333Y-108115905D01*
X54700499Y-108089555D01*
X54700499Y-107512492D01*
X54689999Y-107409703D01*
X54634814Y-107243166D01*
X54542712Y-107093844D01*
X54449049Y-107000181D01*
X54415564Y-106938858D01*
X54420548Y-106869166D01*
X54449049Y-106824819D01*
X54490350Y-106783518D01*
X54542712Y-106731156D01*
X54634814Y-106581834D01*
X54689999Y-106415297D01*
X54700500Y-106312509D01*
X54700499Y-105687492D01*
X54694166Y-105625500D01*
X54689999Y-105584703D01*
X54689998Y-105584700D01*
X54684303Y-105567514D01*
X54634814Y-105418166D01*
X54542712Y-105268844D01*
X54418656Y-105144788D01*
X54269334Y-105052686D01*
X54269333Y-105052685D01*
X54269332Y-105052685D01*
X54268465Y-105052281D01*
X54267969Y-105051845D01*
X54263187Y-105048895D01*
X54263691Y-105048077D01*
X54216025Y-105006109D01*
X54196872Y-104938916D01*
X54217087Y-104872035D01*
X54246552Y-104840635D01*
X54357546Y-104757546D01*
X54400734Y-104699854D01*
X54456667Y-104657984D01*
X54526359Y-104653000D01*
X54587682Y-104686485D01*
X54599263Y-104699850D01*
X54642454Y-104757546D01*
X54688643Y-104792123D01*
X54757664Y-104843793D01*
X54757671Y-104843797D01*
X54892517Y-104894091D01*
X54892516Y-104894091D01*
X54899444Y-104894835D01*
X54952127Y-104900500D01*
X56047872Y-104900499D01*
X56107483Y-104894091D01*
X56242331Y-104843796D01*
X56357546Y-104757546D01*
X56400734Y-104699854D01*
X56456667Y-104657984D01*
X56526359Y-104653000D01*
X56587682Y-104686485D01*
X56599263Y-104699850D01*
X56642454Y-104757546D01*
X56688643Y-104792123D01*
X56757664Y-104843793D01*
X56757671Y-104843797D01*
X56892517Y-104894091D01*
X56892516Y-104894091D01*
X56899444Y-104894835D01*
X56952127Y-104900500D01*
X58047872Y-104900499D01*
X58107483Y-104894091D01*
X58242331Y-104843796D01*
X58357546Y-104757546D01*
X58400734Y-104699854D01*
X58456667Y-104657984D01*
X58526359Y-104653000D01*
X58587682Y-104686485D01*
X58599263Y-104699850D01*
X58642454Y-104757546D01*
X58688643Y-104792123D01*
X58757664Y-104843793D01*
X58757671Y-104843797D01*
X58892517Y-104894091D01*
X58892516Y-104894091D01*
X58899444Y-104894835D01*
X58952127Y-104900500D01*
X60047872Y-104900499D01*
X60107483Y-104894091D01*
X60242331Y-104843796D01*
X60357546Y-104757546D01*
X60400734Y-104699854D01*
X60456667Y-104657984D01*
X60526359Y-104653000D01*
X60587682Y-104686485D01*
X60599263Y-104699850D01*
X60642454Y-104757546D01*
X60688643Y-104792123D01*
X60757664Y-104843793D01*
X60757671Y-104843797D01*
X60892517Y-104894091D01*
X60892516Y-104894091D01*
X60899444Y-104894835D01*
X60952127Y-104900500D01*
X62047872Y-104900499D01*
X62107483Y-104894091D01*
X62242331Y-104843796D01*
X62357546Y-104757546D01*
X62443796Y-104642331D01*
X62494091Y-104507483D01*
X62500500Y-104447873D01*
X62500499Y-103082416D01*
X62520184Y-103015378D01*
X62572987Y-102969623D01*
X62642146Y-102959679D01*
X62667827Y-102966233D01*
X62742517Y-102994091D01*
X62802127Y-103000500D01*
X65397872Y-103000499D01*
X65457483Y-102994091D01*
X65592331Y-102943796D01*
X65707546Y-102857546D01*
X65793796Y-102742331D01*
X65794326Y-102740910D01*
X65821549Y-102667922D01*
X65863420Y-102611988D01*
X65928884Y-102587570D01*
X65997157Y-102602421D01*
X66025412Y-102623573D01*
X66081654Y-102679815D01*
X66230875Y-102771856D01*
X66230880Y-102771858D01*
X66397302Y-102827005D01*
X66397309Y-102827006D01*
X66500019Y-102837499D01*
X66749999Y-102837499D01*
X66750000Y-102837498D01*
X66750000Y-101699000D01*
X66769685Y-101631961D01*
X66822489Y-101586206D01*
X66874000Y-101575000D01*
X67126000Y-101575000D01*
X67193039Y-101594685D01*
G37*
%TD.AperFunction*%
%TA.AperFunction,Conductor*%
G36*
X77440964Y-104634029D02*
G01*
X77487507Y-104686139D01*
X77499500Y-104739340D01*
X77499500Y-105961904D01*
X77479815Y-106028943D01*
X77427011Y-106074698D01*
X77357853Y-106084642D01*
X77294297Y-106055617D01*
X77261944Y-106011714D01*
X77235484Y-105951393D01*
X77151186Y-105822365D01*
X76564611Y-106408940D01*
X76559110Y-106388409D01*
X76480118Y-106251592D01*
X76368408Y-106139882D01*
X76231591Y-106060890D01*
X76211058Y-106055388D01*
X76798797Y-105467647D01*
X76798797Y-105467646D01*
X76773773Y-105448169D01*
X76732961Y-105391459D01*
X76729286Y-105321686D01*
X76763918Y-105261003D01*
X76773760Y-105252473D01*
X76951784Y-105113913D01*
X77108979Y-104943153D01*
X77235924Y-104748849D01*
X77261944Y-104689530D01*
X77306900Y-104636044D01*
X77373636Y-104615354D01*
X77440964Y-104634029D01*
G37*
%TD.AperFunction*%
%TA.AperFunction,Conductor*%
G36*
X47134248Y-92620185D02*
G01*
X47180003Y-92672989D01*
X47183391Y-92681167D01*
X47206202Y-92742328D01*
X47206206Y-92742335D01*
X47292452Y-92857544D01*
X47292453Y-92857544D01*
X47292454Y-92857546D01*
X47321615Y-92879376D01*
X47350145Y-92900734D01*
X47392015Y-92956668D01*
X47396999Y-93026360D01*
X47363513Y-93087683D01*
X47350145Y-93099266D01*
X47292452Y-93142455D01*
X47206206Y-93257664D01*
X47206202Y-93257671D01*
X47155908Y-93392517D01*
X47150192Y-93445688D01*
X47149501Y-93452123D01*
X47149500Y-93452135D01*
X47149500Y-94547870D01*
X47149501Y-94547876D01*
X47155908Y-94607483D01*
X47206202Y-94742328D01*
X47206206Y-94742335D01*
X47292452Y-94857544D01*
X47292453Y-94857544D01*
X47292454Y-94857546D01*
X47306249Y-94867873D01*
X47350145Y-94900734D01*
X47392015Y-94956668D01*
X47396999Y-95026360D01*
X47363513Y-95087683D01*
X47350145Y-95099266D01*
X47292452Y-95142455D01*
X47206206Y-95257664D01*
X47206202Y-95257671D01*
X47155908Y-95392517D01*
X47150192Y-95445687D01*
X47149501Y-95452123D01*
X47149500Y-95452135D01*
X47149500Y-96547870D01*
X47149501Y-96547876D01*
X47155908Y-96607483D01*
X47206202Y-96742328D01*
X47206206Y-96742335D01*
X47292452Y-96857544D01*
X47292453Y-96857544D01*
X47292454Y-96857546D01*
X47321615Y-96879376D01*
X47350145Y-96900734D01*
X47392015Y-96956668D01*
X47396999Y-97026360D01*
X47363513Y-97087683D01*
X47350145Y-97099266D01*
X47292452Y-97142455D01*
X47206206Y-97257664D01*
X47206202Y-97257671D01*
X47155908Y-97392517D01*
X47149501Y-97452116D01*
X47149501Y-97452123D01*
X47149500Y-97452135D01*
X47149500Y-98547870D01*
X47149501Y-98547876D01*
X47155908Y-98607483D01*
X47185608Y-98687111D01*
X47190592Y-98756803D01*
X47157107Y-98818126D01*
X47095783Y-98851610D01*
X47030423Y-98848150D01*
X46915297Y-98810001D01*
X46915295Y-98810000D01*
X46812510Y-98799500D01*
X46187498Y-98799500D01*
X46187480Y-98799501D01*
X46084703Y-98810000D01*
X46084700Y-98810001D01*
X45918168Y-98865185D01*
X45918163Y-98865187D01*
X45768845Y-98957287D01*
X45674827Y-99051305D01*
X45613503Y-99084789D01*
X45543812Y-99079805D01*
X45499465Y-99051304D01*
X45405845Y-98957684D01*
X45256624Y-98865643D01*
X45256619Y-98865641D01*
X45090197Y-98810494D01*
X45090190Y-98810493D01*
X44987486Y-98800000D01*
X44925000Y-98800000D01*
X44925000Y-101199999D01*
X44987472Y-101199999D01*
X44987486Y-101199998D01*
X45090197Y-101189505D01*
X45256619Y-101134358D01*
X45256624Y-101134356D01*
X45405842Y-101042317D01*
X45499464Y-100948695D01*
X45560787Y-100915210D01*
X45630479Y-100920194D01*
X45674827Y-100948695D01*
X45768844Y-101042712D01*
X45815596Y-101071548D01*
X45862320Y-101123494D01*
X45874500Y-101177087D01*
X45874500Y-102189546D01*
X45854815Y-102256585D01*
X45838181Y-102277227D01*
X44711424Y-103403984D01*
X44650101Y-103437469D01*
X44580409Y-103432485D01*
X44536062Y-103403984D01*
X44502262Y-103370184D01*
X44349521Y-103274210D01*
X44179249Y-103214630D01*
X44132173Y-103209326D01*
X44067759Y-103182259D01*
X44058377Y-103173787D01*
X42661819Y-101777229D01*
X42628334Y-101715906D01*
X42625500Y-101689548D01*
X42625500Y-100250000D01*
X43662501Y-100250000D01*
X43662501Y-100499986D01*
X43672994Y-100602697D01*
X43728141Y-100769119D01*
X43728143Y-100769124D01*
X43820184Y-100918345D01*
X43944154Y-101042315D01*
X44093375Y-101134356D01*
X44093380Y-101134358D01*
X44259802Y-101189505D01*
X44259809Y-101189506D01*
X44362519Y-101199999D01*
X44424999Y-101199998D01*
X44425000Y-101199998D01*
X44425000Y-100250000D01*
X43662501Y-100250000D01*
X42625500Y-100250000D01*
X42625500Y-99750000D01*
X43662500Y-99750000D01*
X44425000Y-99750000D01*
X44425000Y-98800000D01*
X44424999Y-98799999D01*
X44362528Y-98800000D01*
X44362511Y-98800001D01*
X44259802Y-98810494D01*
X44093380Y-98865641D01*
X44093375Y-98865643D01*
X43944154Y-98957684D01*
X43820184Y-99081654D01*
X43728143Y-99230875D01*
X43728141Y-99230880D01*
X43672994Y-99397302D01*
X43672993Y-99397309D01*
X43662500Y-99500013D01*
X43662500Y-99750000D01*
X42625500Y-99750000D01*
X42625500Y-97310451D01*
X42645185Y-97243412D01*
X42661814Y-97222774D01*
X43647771Y-96236817D01*
X43709094Y-96203333D01*
X43735452Y-96200499D01*
X44137502Y-96200499D01*
X44137508Y-96200499D01*
X44240297Y-96189999D01*
X44406834Y-96134814D01*
X44556156Y-96042712D01*
X44680212Y-95918656D01*
X44772314Y-95769334D01*
X44827499Y-95602797D01*
X44838000Y-95500009D01*
X44837999Y-94499992D01*
X44827499Y-94397203D01*
X44772314Y-94230666D01*
X44680212Y-94081344D01*
X44661819Y-94062951D01*
X44628334Y-94001628D01*
X44625500Y-93975270D01*
X44625500Y-93177087D01*
X44645185Y-93110048D01*
X44684402Y-93071548D01*
X44731156Y-93042712D01*
X44824819Y-92949049D01*
X44886142Y-92915564D01*
X44955834Y-92920548D01*
X45000181Y-92949049D01*
X45093844Y-93042712D01*
X45243166Y-93134814D01*
X45409703Y-93189999D01*
X45512491Y-93200500D01*
X46137508Y-93200499D01*
X46137516Y-93200498D01*
X46137519Y-93200498D01*
X46193802Y-93194748D01*
X46240297Y-93189999D01*
X46406834Y-93134814D01*
X46556156Y-93042712D01*
X46680212Y-92918656D01*
X46772314Y-92769334D01*
X46800095Y-92685495D01*
X46839868Y-92628051D01*
X46904384Y-92601228D01*
X46917801Y-92600500D01*
X47067209Y-92600500D01*
X47134248Y-92620185D01*
G37*
%TD.AperFunction*%
%TA.AperFunction,Conductor*%
G36*
X62343572Y-96645185D02*
G01*
X62389327Y-96697989D01*
X62392715Y-96706166D01*
X62406203Y-96742330D01*
X62406206Y-96742335D01*
X62492452Y-96857544D01*
X62492453Y-96857544D01*
X62492454Y-96857546D01*
X62521615Y-96879376D01*
X62550145Y-96900734D01*
X62592015Y-96956668D01*
X62596999Y-97026360D01*
X62563513Y-97087683D01*
X62550145Y-97099266D01*
X62492452Y-97142455D01*
X62406206Y-97257664D01*
X62406202Y-97257671D01*
X62355908Y-97392517D01*
X62349501Y-97452116D01*
X62349501Y-97452123D01*
X62349500Y-97452135D01*
X62349500Y-98547870D01*
X62349501Y-98547876D01*
X62355908Y-98607483D01*
X62406202Y-98742328D01*
X62406206Y-98742335D01*
X62492452Y-98857544D01*
X62492453Y-98857544D01*
X62492454Y-98857546D01*
X62521615Y-98879376D01*
X62550145Y-98900734D01*
X62592015Y-98956668D01*
X62596999Y-99026360D01*
X62563513Y-99087683D01*
X62550145Y-99099266D01*
X62492452Y-99142455D01*
X62406206Y-99257664D01*
X62406202Y-99257671D01*
X62355908Y-99392517D01*
X62349501Y-99452116D01*
X62349501Y-99452123D01*
X62349500Y-99452135D01*
X62349500Y-100547870D01*
X62349501Y-100547876D01*
X62355908Y-100607483D01*
X62406202Y-100742328D01*
X62406206Y-100742335D01*
X62492452Y-100857544D01*
X62492453Y-100857544D01*
X62492454Y-100857546D01*
X62510625Y-100871149D01*
X62550145Y-100900734D01*
X62592015Y-100956668D01*
X62596999Y-101026360D01*
X62563513Y-101087683D01*
X62550145Y-101099266D01*
X62492452Y-101142455D01*
X62406206Y-101257664D01*
X62406202Y-101257671D01*
X62355908Y-101392517D01*
X62349501Y-101452116D01*
X62349500Y-101452135D01*
X62349500Y-102017581D01*
X62329815Y-102084620D01*
X62277011Y-102130375D01*
X62207853Y-102140319D01*
X62182168Y-102133763D01*
X62107485Y-102105909D01*
X62107483Y-102105908D01*
X62047883Y-102099501D01*
X62047881Y-102099500D01*
X62047873Y-102099500D01*
X62047864Y-102099500D01*
X60952129Y-102099500D01*
X60952123Y-102099501D01*
X60892516Y-102105908D01*
X60757671Y-102156202D01*
X60757664Y-102156206D01*
X60642455Y-102242452D01*
X60599266Y-102300145D01*
X60543332Y-102342015D01*
X60473640Y-102346999D01*
X60412317Y-102313513D01*
X60400734Y-102300145D01*
X60368124Y-102256585D01*
X60357546Y-102242454D01*
X60357544Y-102242453D01*
X60357544Y-102242452D01*
X60242335Y-102156206D01*
X60242328Y-102156202D01*
X60107482Y-102105908D01*
X60107483Y-102105908D01*
X60047883Y-102099501D01*
X60047881Y-102099500D01*
X60047873Y-102099500D01*
X60047864Y-102099500D01*
X58952129Y-102099500D01*
X58952123Y-102099501D01*
X58892516Y-102105908D01*
X58757671Y-102156202D01*
X58757664Y-102156206D01*
X58642455Y-102242452D01*
X58599266Y-102300145D01*
X58543332Y-102342015D01*
X58473640Y-102346999D01*
X58412317Y-102313513D01*
X58400734Y-102300145D01*
X58368124Y-102256585D01*
X58357546Y-102242454D01*
X58357544Y-102242453D01*
X58357544Y-102242452D01*
X58242335Y-102156206D01*
X58242328Y-102156202D01*
X58107482Y-102105908D01*
X58107483Y-102105908D01*
X58047883Y-102099501D01*
X58047881Y-102099500D01*
X58047873Y-102099500D01*
X58047864Y-102099500D01*
X56952129Y-102099500D01*
X56952123Y-102099501D01*
X56892516Y-102105908D01*
X56757671Y-102156202D01*
X56757664Y-102156206D01*
X56642455Y-102242452D01*
X56599266Y-102300145D01*
X56543332Y-102342015D01*
X56473640Y-102346999D01*
X56412317Y-102313513D01*
X56400734Y-102300145D01*
X56368124Y-102256585D01*
X56357546Y-102242454D01*
X56357544Y-102242453D01*
X56357544Y-102242452D01*
X56242335Y-102156206D01*
X56242328Y-102156202D01*
X56107482Y-102105908D01*
X56107483Y-102105908D01*
X56047883Y-102099501D01*
X56047881Y-102099500D01*
X56047873Y-102099500D01*
X56047864Y-102099500D01*
X54952129Y-102099500D01*
X54952123Y-102099501D01*
X54892516Y-102105908D01*
X54757671Y-102156202D01*
X54757664Y-102156206D01*
X54642455Y-102242452D01*
X54599266Y-102300145D01*
X54543332Y-102342015D01*
X54473640Y-102346999D01*
X54412317Y-102313513D01*
X54400734Y-102300145D01*
X54368124Y-102256585D01*
X54357546Y-102242454D01*
X54357544Y-102242453D01*
X54357544Y-102242452D01*
X54242335Y-102156206D01*
X54242328Y-102156202D01*
X54107482Y-102105908D01*
X54107483Y-102105908D01*
X54047883Y-102099501D01*
X54047881Y-102099500D01*
X54047873Y-102099500D01*
X54047864Y-102099500D01*
X52952129Y-102099500D01*
X52952123Y-102099501D01*
X52892516Y-102105908D01*
X52757671Y-102156202D01*
X52757664Y-102156206D01*
X52642455Y-102242452D01*
X52599266Y-102300145D01*
X52543332Y-102342015D01*
X52473640Y-102346999D01*
X52412317Y-102313513D01*
X52400734Y-102300145D01*
X52368124Y-102256585D01*
X52357546Y-102242454D01*
X52357544Y-102242453D01*
X52357544Y-102242452D01*
X52242335Y-102156206D01*
X52242328Y-102156202D01*
X52107482Y-102105908D01*
X52107483Y-102105908D01*
X52068290Y-102101695D01*
X52003739Y-102074957D01*
X51963891Y-102017565D01*
X51961397Y-101947740D01*
X51993864Y-101890725D01*
X53169461Y-100715129D01*
X57222772Y-96661819D01*
X57284095Y-96628334D01*
X57310453Y-96625500D01*
X62276533Y-96625500D01*
X62343572Y-96645185D01*
G37*
%TD.AperFunction*%
%TA.AperFunction,Conductor*%
G36*
X62418412Y-87019685D02*
G01*
X62464167Y-87072489D01*
X62474111Y-87141647D01*
X62450639Y-87198312D01*
X62406204Y-87257668D01*
X62406202Y-87257671D01*
X62355908Y-87392517D01*
X62350192Y-87445687D01*
X62349501Y-87452123D01*
X62349500Y-87452135D01*
X62349500Y-88547870D01*
X62349501Y-88547876D01*
X62355908Y-88607483D01*
X62406202Y-88742328D01*
X62406206Y-88742335D01*
X62492452Y-88857544D01*
X62492453Y-88857544D01*
X62492454Y-88857546D01*
X62521615Y-88879376D01*
X62550145Y-88900734D01*
X62592015Y-88956668D01*
X62596999Y-89026360D01*
X62563513Y-89087683D01*
X62550145Y-89099266D01*
X62492452Y-89142455D01*
X62406206Y-89257664D01*
X62406202Y-89257671D01*
X62355908Y-89392517D01*
X62350192Y-89445688D01*
X62349501Y-89452123D01*
X62349500Y-89452135D01*
X62349500Y-90547870D01*
X62349501Y-90547876D01*
X62355908Y-90607483D01*
X62406202Y-90742328D01*
X62406206Y-90742335D01*
X62492452Y-90857544D01*
X62492453Y-90857544D01*
X62492454Y-90857546D01*
X62502660Y-90865186D01*
X62550145Y-90900734D01*
X62592015Y-90956668D01*
X62596999Y-91026360D01*
X62563513Y-91087683D01*
X62550145Y-91099266D01*
X62492452Y-91142455D01*
X62406206Y-91257664D01*
X62406202Y-91257671D01*
X62355908Y-91392517D01*
X62350192Y-91445688D01*
X62349501Y-91452123D01*
X62349500Y-91452135D01*
X62349500Y-92547870D01*
X62349501Y-92547876D01*
X62355908Y-92607483D01*
X62406202Y-92742328D01*
X62406206Y-92742335D01*
X62492452Y-92857544D01*
X62492453Y-92857544D01*
X62492454Y-92857546D01*
X62521615Y-92879376D01*
X62550145Y-92900734D01*
X62592015Y-92956668D01*
X62596999Y-93026360D01*
X62563513Y-93087683D01*
X62550145Y-93099266D01*
X62492452Y-93142455D01*
X62406206Y-93257664D01*
X62406202Y-93257671D01*
X62355908Y-93392517D01*
X62350192Y-93445688D01*
X62349501Y-93452123D01*
X62349500Y-93452135D01*
X62349500Y-94547870D01*
X62349501Y-94547876D01*
X62355908Y-94607483D01*
X62406202Y-94742328D01*
X62406206Y-94742335D01*
X62492452Y-94857544D01*
X62492453Y-94857544D01*
X62492454Y-94857546D01*
X62506249Y-94867873D01*
X62550145Y-94900734D01*
X62592015Y-94956668D01*
X62596999Y-95026360D01*
X62563513Y-95087683D01*
X62550145Y-95099266D01*
X62492452Y-95142455D01*
X62406206Y-95257664D01*
X62406203Y-95257669D01*
X62392715Y-95293834D01*
X62350843Y-95349767D01*
X62285379Y-95374184D01*
X62276533Y-95374500D01*
X56938388Y-95374500D01*
X56817555Y-95398535D01*
X56817547Y-95398537D01*
X56703716Y-95445687D01*
X56622419Y-95500009D01*
X56622418Y-95500010D01*
X56601263Y-95514144D01*
X56601262Y-95514145D01*
X50801933Y-101313475D01*
X50740610Y-101346960D01*
X50670918Y-101341976D01*
X50614985Y-101300104D01*
X50598070Y-101269127D01*
X50593797Y-101257671D01*
X50593793Y-101257664D01*
X50507547Y-101142456D01*
X50507548Y-101142456D01*
X50507546Y-101142454D01*
X50449854Y-101099265D01*
X50407984Y-101043333D01*
X50403000Y-100973641D01*
X50436485Y-100912318D01*
X50449854Y-100900734D01*
X50507546Y-100857546D01*
X50593796Y-100742331D01*
X50644091Y-100607483D01*
X50650500Y-100547873D01*
X50650499Y-99452128D01*
X50644091Y-99392517D01*
X50603941Y-99284870D01*
X50593797Y-99257671D01*
X50593793Y-99257664D01*
X50507547Y-99142456D01*
X50507548Y-99142456D01*
X50507546Y-99142454D01*
X50449854Y-99099265D01*
X50407984Y-99043333D01*
X50403000Y-98973641D01*
X50436485Y-98912318D01*
X50449854Y-98900734D01*
X50507546Y-98857546D01*
X50593796Y-98742331D01*
X50644091Y-98607483D01*
X50650500Y-98547873D01*
X50650499Y-97452128D01*
X50644091Y-97392517D01*
X50613482Y-97310451D01*
X50593797Y-97257671D01*
X50593793Y-97257664D01*
X50507547Y-97142456D01*
X50507548Y-97142456D01*
X50507546Y-97142454D01*
X50449854Y-97099265D01*
X50407984Y-97043333D01*
X50403000Y-96973641D01*
X50436485Y-96912318D01*
X50449854Y-96900734D01*
X50507546Y-96857546D01*
X50593796Y-96742331D01*
X50644091Y-96607483D01*
X50650500Y-96547873D01*
X50650499Y-95452128D01*
X50644091Y-95392517D01*
X50637253Y-95374184D01*
X50593797Y-95257671D01*
X50593793Y-95257664D01*
X50524220Y-95164728D01*
X50507546Y-95142454D01*
X50449854Y-95099265D01*
X50407984Y-95043333D01*
X50403000Y-94973641D01*
X50436485Y-94912318D01*
X50449854Y-94900734D01*
X50507546Y-94857546D01*
X50593796Y-94742331D01*
X50644091Y-94607483D01*
X50650500Y-94547873D01*
X50650499Y-93452128D01*
X50644091Y-93392517D01*
X50610334Y-93302011D01*
X50593797Y-93257671D01*
X50593793Y-93257664D01*
X50507547Y-93142456D01*
X50507548Y-93142456D01*
X50507546Y-93142454D01*
X50449854Y-93099265D01*
X50407984Y-93043333D01*
X50403000Y-92973641D01*
X50436485Y-92912318D01*
X50449854Y-92900734D01*
X50507546Y-92857546D01*
X50593796Y-92742331D01*
X50644091Y-92607483D01*
X50650500Y-92547873D01*
X50650499Y-91452128D01*
X50644091Y-91392517D01*
X50639353Y-91379815D01*
X50593797Y-91257671D01*
X50593793Y-91257664D01*
X50507547Y-91142456D01*
X50507548Y-91142456D01*
X50507546Y-91142454D01*
X50449854Y-91099265D01*
X50407984Y-91043333D01*
X50403000Y-90973641D01*
X50436485Y-90912318D01*
X50449854Y-90900734D01*
X50507546Y-90857546D01*
X50593796Y-90742331D01*
X50644091Y-90607483D01*
X50650500Y-90547873D01*
X50650499Y-89452128D01*
X50644091Y-89392517D01*
X50610334Y-89302011D01*
X50593797Y-89257671D01*
X50593793Y-89257664D01*
X50507547Y-89142456D01*
X50507548Y-89142456D01*
X50507546Y-89142454D01*
X50449854Y-89099265D01*
X50407984Y-89043333D01*
X50403000Y-88973641D01*
X50436485Y-88912318D01*
X50449854Y-88900734D01*
X50507546Y-88857546D01*
X50593796Y-88742331D01*
X50644091Y-88607483D01*
X50650500Y-88547873D01*
X50650499Y-87452128D01*
X50644091Y-87392517D01*
X50637253Y-87374184D01*
X50593797Y-87257671D01*
X50593795Y-87257668D01*
X50549360Y-87198311D01*
X50524943Y-87132847D01*
X50539794Y-87064574D01*
X50589199Y-87015168D01*
X50648627Y-87000000D01*
X62351373Y-87000000D01*
X62418412Y-87019685D01*
G37*
%TD.AperFunction*%
%TA.AperFunction,Conductor*%
G36*
X47143572Y-88645185D02*
G01*
X47189327Y-88697989D01*
X47192715Y-88706166D01*
X47206203Y-88742330D01*
X47206206Y-88742335D01*
X47292452Y-88857544D01*
X47292453Y-88857544D01*
X47292454Y-88857546D01*
X47321615Y-88879376D01*
X47350145Y-88900734D01*
X47392015Y-88956668D01*
X47396999Y-89026360D01*
X47363513Y-89087683D01*
X47350145Y-89099266D01*
X47292452Y-89142455D01*
X47206206Y-89257664D01*
X47206202Y-89257671D01*
X47155908Y-89392517D01*
X47150192Y-89445688D01*
X47149501Y-89452123D01*
X47149500Y-89452135D01*
X47149500Y-90547870D01*
X47149501Y-90547876D01*
X47155908Y-90607483D01*
X47206202Y-90742328D01*
X47206206Y-90742335D01*
X47292452Y-90857544D01*
X47292453Y-90857544D01*
X47292454Y-90857546D01*
X47302660Y-90865186D01*
X47350145Y-90900734D01*
X47392015Y-90956668D01*
X47396999Y-91026360D01*
X47363513Y-91087683D01*
X47350145Y-91099266D01*
X47292452Y-91142455D01*
X47206206Y-91257664D01*
X47206202Y-91257671D01*
X47183391Y-91318833D01*
X47141520Y-91374767D01*
X47076056Y-91399184D01*
X47067209Y-91399500D01*
X46917801Y-91399500D01*
X46850762Y-91379815D01*
X46805007Y-91327011D01*
X46800095Y-91314504D01*
X46790017Y-91284090D01*
X46772314Y-91230666D01*
X46680212Y-91081344D01*
X46556156Y-90957288D01*
X46406834Y-90865186D01*
X46240297Y-90810001D01*
X46240295Y-90810000D01*
X46137510Y-90799500D01*
X45512498Y-90799500D01*
X45512480Y-90799501D01*
X45409703Y-90810000D01*
X45409700Y-90810001D01*
X45243168Y-90865185D01*
X45243163Y-90865187D01*
X45093842Y-90957289D01*
X45000181Y-91050951D01*
X44938858Y-91084436D01*
X44869166Y-91079452D01*
X44824819Y-91050951D01*
X44731157Y-90957289D01*
X44731156Y-90957288D01*
X44581834Y-90865186D01*
X44415297Y-90810001D01*
X44415295Y-90810000D01*
X44312510Y-90799500D01*
X43687498Y-90799500D01*
X43687480Y-90799501D01*
X43584703Y-90810000D01*
X43584700Y-90810001D01*
X43418168Y-90865185D01*
X43418163Y-90865187D01*
X43268842Y-90957289D01*
X43144789Y-91081342D01*
X43052687Y-91230663D01*
X43052686Y-91230666D01*
X42997501Y-91397203D01*
X42997501Y-91397204D01*
X42997500Y-91397204D01*
X42987000Y-91499983D01*
X42987000Y-92500001D01*
X42987001Y-92500019D01*
X42997500Y-92602796D01*
X42997501Y-92602799D01*
X43052685Y-92769331D01*
X43052687Y-92769336D01*
X43066873Y-92792335D01*
X43144788Y-92918656D01*
X43268844Y-93042712D01*
X43315596Y-93071548D01*
X43362320Y-93123494D01*
X43374500Y-93177087D01*
X43374500Y-93732125D01*
X43354815Y-93799164D01*
X43302011Y-93844919D01*
X43289509Y-93849829D01*
X43243169Y-93865185D01*
X43243166Y-93865186D01*
X43243163Y-93865187D01*
X43093842Y-93957289D01*
X43000181Y-94050951D01*
X42938858Y-94084436D01*
X42869166Y-94079452D01*
X42824819Y-94050951D01*
X42731157Y-93957289D01*
X42731156Y-93957288D01*
X42581834Y-93865186D01*
X42415297Y-93810001D01*
X42415295Y-93810000D01*
X42312510Y-93799500D01*
X41687498Y-93799500D01*
X41687480Y-93799501D01*
X41584703Y-93810000D01*
X41584700Y-93810001D01*
X41418168Y-93865185D01*
X41418163Y-93865187D01*
X41268842Y-93957289D01*
X41144789Y-94081342D01*
X41052687Y-94230663D01*
X41052686Y-94230666D01*
X40997501Y-94397203D01*
X40997501Y-94397204D01*
X40997500Y-94397204D01*
X40987000Y-94499983D01*
X40987000Y-95077047D01*
X40967315Y-95144086D01*
X40950681Y-95164728D01*
X40337181Y-95778228D01*
X40275858Y-95811713D01*
X40206166Y-95806729D01*
X40150233Y-95764857D01*
X40125816Y-95699393D01*
X40125500Y-95690547D01*
X40125500Y-93160764D01*
X40145185Y-93093725D01*
X40197989Y-93047970D01*
X40206167Y-93044582D01*
X40342328Y-92993797D01*
X40342327Y-92993797D01*
X40342331Y-92993796D01*
X40457546Y-92907546D01*
X40543796Y-92792331D01*
X40594091Y-92657483D01*
X40600500Y-92597873D01*
X40600499Y-91335450D01*
X40620184Y-91268412D01*
X40636813Y-91247775D01*
X43222772Y-88661819D01*
X43284095Y-88628334D01*
X43310453Y-88625500D01*
X47076533Y-88625500D01*
X47143572Y-88645185D01*
G37*
%TD.AperFunction*%
%TA.AperFunction,Conductor*%
G36*
X73502855Y-80000632D02*
G01*
X73863310Y-80017296D01*
X73874700Y-80018352D01*
X74229238Y-80067808D01*
X74240482Y-80069910D01*
X74588944Y-80151867D01*
X74599934Y-80154994D01*
X74939368Y-80268761D01*
X74950022Y-80272889D01*
X75277488Y-80417479D01*
X75287731Y-80422579D01*
X75356871Y-80461090D01*
X75600452Y-80596765D01*
X75610190Y-80602794D01*
X75905512Y-80805093D01*
X75914652Y-80811996D01*
X76190035Y-81040671D01*
X76198499Y-81048387D01*
X76451612Y-81301500D01*
X76459328Y-81309964D01*
X76688003Y-81585347D01*
X76694906Y-81594487D01*
X76897205Y-81889809D01*
X76903234Y-81899547D01*
X77077418Y-82212264D01*
X77082522Y-82222515D01*
X77227104Y-82549963D01*
X77227105Y-82549964D01*
X77231243Y-82560644D01*
X77345001Y-82900052D01*
X77348135Y-82911068D01*
X77430087Y-83259509D01*
X77432192Y-83270768D01*
X77481646Y-83625292D01*
X77482703Y-83636696D01*
X77499368Y-83997141D01*
X77499500Y-84002868D01*
X77499500Y-92613106D01*
X77479815Y-92680145D01*
X77427011Y-92725900D01*
X77357853Y-92735844D01*
X77294297Y-92706819D01*
X77276234Y-92687418D01*
X77274795Y-92685496D01*
X77257546Y-92662454D01*
X77257544Y-92662453D01*
X77257544Y-92662452D01*
X77142335Y-92576206D01*
X77142328Y-92576202D01*
X77007482Y-92525908D01*
X77007483Y-92525908D01*
X76947883Y-92519501D01*
X76947881Y-92519500D01*
X76947873Y-92519500D01*
X76947864Y-92519500D01*
X75052129Y-92519500D01*
X75052123Y-92519501D01*
X74992516Y-92525908D01*
X74857671Y-92576202D01*
X74857664Y-92576206D01*
X74742455Y-92662452D01*
X74742452Y-92662455D01*
X74656206Y-92777664D01*
X74656202Y-92777671D01*
X74605908Y-92912517D01*
X74599501Y-92972116D01*
X74599500Y-92972135D01*
X74599500Y-94415548D01*
X74579815Y-94482587D01*
X74527011Y-94528342D01*
X74457853Y-94538286D01*
X74394297Y-94509261D01*
X74387819Y-94503229D01*
X67490198Y-87605608D01*
X67490178Y-87605586D01*
X67398733Y-87514141D01*
X67347509Y-87479915D01*
X67305925Y-87452129D01*
X67296286Y-87445688D01*
X67296283Y-87445686D01*
X67296280Y-87445685D01*
X67215792Y-87412347D01*
X67182453Y-87398537D01*
X67172427Y-87396543D01*
X67122029Y-87386518D01*
X67061610Y-87374500D01*
X67061607Y-87374500D01*
X67061606Y-87374500D01*
X65923467Y-87374500D01*
X65856428Y-87354815D01*
X65810673Y-87302011D01*
X65807285Y-87293834D01*
X65793796Y-87257669D01*
X65793795Y-87257668D01*
X65749360Y-87198311D01*
X65724943Y-87132847D01*
X65739794Y-87064574D01*
X65789199Y-87015168D01*
X65848627Y-87000000D01*
X67000000Y-87000000D01*
X67000000Y-85500000D01*
X69244473Y-85500000D01*
X69264563Y-85832136D01*
X69264563Y-85832141D01*
X69264564Y-85832142D01*
X69324544Y-86159441D01*
X69324545Y-86159445D01*
X69324546Y-86159449D01*
X69423530Y-86477104D01*
X69423534Y-86477116D01*
X69423537Y-86477123D01*
X69560102Y-86780557D01*
X69731796Y-87064574D01*
X69732251Y-87065326D01*
X69937460Y-87327255D01*
X70172744Y-87562539D01*
X70434673Y-87767748D01*
X70434678Y-87767751D01*
X70434682Y-87767754D01*
X70719443Y-87939898D01*
X71022877Y-88076463D01*
X71022890Y-88076467D01*
X71022895Y-88076469D01*
X71234665Y-88142458D01*
X71340559Y-88175456D01*
X71667858Y-88235436D01*
X72000000Y-88255527D01*
X72332142Y-88235436D01*
X72659441Y-88175456D01*
X72977123Y-88076463D01*
X73280557Y-87939898D01*
X73565318Y-87767754D01*
X73827252Y-87562542D01*
X74062542Y-87327252D01*
X74267754Y-87065318D01*
X74439898Y-86780557D01*
X74576463Y-86477123D01*
X74675456Y-86159441D01*
X74735436Y-85832142D01*
X74755527Y-85500000D01*
X74735436Y-85167858D01*
X74675456Y-84840559D01*
X74576463Y-84522877D01*
X74439898Y-84219443D01*
X74267754Y-83934682D01*
X74267751Y-83934678D01*
X74267748Y-83934673D01*
X74062539Y-83672744D01*
X73827255Y-83437460D01*
X73565326Y-83232251D01*
X73565318Y-83232246D01*
X73280557Y-83060102D01*
X72977123Y-82923537D01*
X72977116Y-82923534D01*
X72977104Y-82923530D01*
X72659449Y-82824546D01*
X72659445Y-82824545D01*
X72659441Y-82824544D01*
X72332142Y-82764564D01*
X72332141Y-82764563D01*
X72332136Y-82764563D01*
X72000000Y-82744473D01*
X71667863Y-82764563D01*
X71667858Y-82764564D01*
X71340559Y-82824544D01*
X71340556Y-82824544D01*
X71340550Y-82824546D01*
X71022895Y-82923530D01*
X71022879Y-82923536D01*
X71022877Y-82923537D01*
X70913102Y-82972943D01*
X70719447Y-83060100D01*
X70719445Y-83060101D01*
X70434673Y-83232251D01*
X70172744Y-83437460D01*
X69937460Y-83672744D01*
X69732251Y-83934673D01*
X69560101Y-84219445D01*
X69560100Y-84219447D01*
X69423536Y-84522880D01*
X69423530Y-84522895D01*
X69324546Y-84840550D01*
X69264563Y-85167863D01*
X69244473Y-85500000D01*
X67000000Y-85500000D01*
X67000000Y-80124500D01*
X67019685Y-80057461D01*
X67072489Y-80011706D01*
X67124000Y-80000500D01*
X73434108Y-80000500D01*
X73497128Y-80000500D01*
X73502855Y-80000632D01*
G37*
%TD.AperFunction*%
%TD*%
M02*
